<mxfile host="app.diagrams.net" agent="Mozilla/5.0 (Windows NT 10.0; Win64; x64) AppleWebKit/537.36 (KHTML, like Gecko) Chrome/131.0.0.0 Safari/537.36 Edg/131.0.0.0" version="24.8.4">
  <diagram name="Diagram" id="ocjAd8ct6YnM7aNRoPTo">
    <mxGraphModel dx="1678" dy="1921" grid="1" gridSize="10" guides="1" tooltips="1" connect="1" arrows="1" fold="1" page="1" pageScale="1" pageWidth="1000" pageHeight="1000" math="0" shadow="0">
      <root>
        <mxCell id="0" />
        <mxCell id="1" parent="0" />
        <mxCell id="MVg5KTkQZKPQUCUnIw-0-23" value="" style="rounded=1;whiteSpace=wrap;html=1;perimeter=rectanglePerimeter;arcSize=4;imageHeight=24;" vertex="1" parent="1">
          <mxGeometry x="890" y="160" width="190" height="200" as="geometry" />
        </mxCell>
        <mxCell id="MVg5KTkQZKPQUCUnIw-0-12" value="" style="rounded=1;whiteSpace=wrap;html=1;perimeter=rectanglePerimeter;arcSize=4;imageHeight=24;" vertex="1" parent="1">
          <mxGeometry x="330" y="-70" width="510" height="540" as="geometry" />
        </mxCell>
        <mxCell id="MVg5KTkQZKPQUCUnIw-0-25" value="" style="edgeStyle=orthogonalEdgeStyle;rounded=0;orthogonalLoop=1;jettySize=auto;html=1;entryX=0;entryY=0.5;entryDx=0;entryDy=0;exitX=0.5;exitY=0;exitDx=0;exitDy=0;" edge="1" parent="1" source="jSwNP9GdJg-Y1JOGv4ba-2" target="jSwNP9GdJg-Y1JOGv4ba-13">
          <mxGeometry relative="1" as="geometry" />
        </mxCell>
        <mxCell id="MVg5KTkQZKPQUCUnIw-0-26" value="" style="edgeStyle=orthogonalEdgeStyle;rounded=0;orthogonalLoop=1;jettySize=auto;html=1;entryX=0;entryY=0.75;entryDx=0;entryDy=0;exitX=0.5;exitY=1;exitDx=0;exitDy=0;" edge="1" parent="1" source="jSwNP9GdJg-Y1JOGv4ba-2" target="jSwNP9GdJg-Y1JOGv4ba-12">
          <mxGeometry relative="1" as="geometry" />
        </mxCell>
        <mxCell id="MVg5KTkQZKPQUCUnIw-0-27" value="" style="edgeStyle=orthogonalEdgeStyle;rounded=0;orthogonalLoop=1;jettySize=auto;html=1;entryX=0;entryY=0.5;entryDx=0;entryDy=0;exitX=0.75;exitY=1;exitDx=0;exitDy=0;" edge="1" parent="1" source="jSwNP9GdJg-Y1JOGv4ba-2" target="jSwNP9GdJg-Y1JOGv4ba-48">
          <mxGeometry relative="1" as="geometry" />
        </mxCell>
        <mxCell id="MVg5KTkQZKPQUCUnIw-0-30" value="" style="edgeStyle=orthogonalEdgeStyle;rounded=0;orthogonalLoop=1;jettySize=auto;html=1;entryX=0;entryY=0.5;entryDx=0;entryDy=0;" edge="1" parent="1" source="jSwNP9GdJg-Y1JOGv4ba-2" target="jSwNP9GdJg-Y1JOGv4ba-10">
          <mxGeometry relative="1" as="geometry" />
        </mxCell>
        <mxCell id="jSwNP9GdJg-Y1JOGv4ba-2" value="Web application" style="shape=rectangle;whiteSpace=wrap;html=1;fontSize=15;" parent="1" vertex="1">
          <mxGeometry x="150" y="135" width="170" height="60" as="geometry" />
        </mxCell>
        <mxCell id="jSwNP9GdJg-Y1JOGv4ba-37" value="" style="group" parent="1" vertex="1" connectable="0">
          <mxGeometry x="910" y="200" width="150" height="60" as="geometry" />
        </mxCell>
        <mxCell id="jSwNP9GdJg-Y1JOGv4ba-31" value="&amp;nbsp; &amp;nbsp; &amp;nbsp; &amp;nbsp; &amp;nbsp; &amp;nbsp;Cloud Vision" style="shape=rectangle;whiteSpace=wrap;html=1;fontSize=15;" parent="jSwNP9GdJg-Y1JOGv4ba-37" vertex="1">
          <mxGeometry width="150" height="60" as="geometry" />
        </mxCell>
        <mxCell id="jSwNP9GdJg-Y1JOGv4ba-36" value="" style="editableCssRules=.*;html=1;shape=image;verticalLabelPosition=bottom;labelBackgroundColor=#ffffff;verticalAlign=top;aspect=fixed;imageAspect=0;image=data:image/svg+xml,PHN2ZyB4bWxucz0iaHR0cDovL3d3dy53My5vcmcvMjAwMC9zdmciIHhtbG5zOnY9Imh0dHBzOi8vdmVjdGEuaW8vbmFubyIgd2lkdGg9IjIwIiBoZWlnaHQ9IjE2IiB2aWV3Qm94PSIwIDAgMjAgMTYiPiYjeGE7CTxzdHlsZSB0eXBlPSJ0ZXh0L2NzcyI+JiN4YTsJLnN0MHtmaWxsOiM2NjlkZjY7fSYjeGE7CS5zdDF7ZmlsbDojYWVjYmZhO30mI3hhOwkuc3Qye2ZpbGw6IzQyODVmNDt9JiN4YTsJPC9zdHlsZT4mI3hhOwk8ZyBjbGFzcz0ic3QwIj4mI3hhOwkJPHBhdGggZD0iTTEwIDE2TDAgOGg0bDYgNC45OXoiLz4mI3hhOwkJPHBhdGggZD0iTTIwIDhsLTEwIDh2LTMuMDFMMTYgOHoiLz4mI3hhOwk8L2c+JiN4YTsJPGcgY2xhc3M9InN0MSI+JiN4YTsJCTxwYXRoIGQ9Ik0xMCAzLjAxTDQgOEgwbDEwLTh6Ii8+JiN4YTsJCTxwYXRoIGQ9Ik0yMCA4TDEwIDB2My4wMUwxNiA4eiIvPiYjeGE7CTwvZz4mI3hhOwk8Y2lyY2xlIGNsYXNzPSJzdDIiIGN4PSIxMCIgY3k9IjgiIHI9IjIiLz4mI3hhOzwvc3ZnPg==;" parent="jSwNP9GdJg-Y1JOGv4ba-37" vertex="1">
          <mxGeometry x="10" y="14" width="40" height="32" as="geometry" />
        </mxCell>
        <mxCell id="jSwNP9GdJg-Y1JOGv4ba-41" value="" style="group" parent="1" vertex="1" connectable="0">
          <mxGeometry x="390" y="320" width="160" height="60" as="geometry" />
        </mxCell>
        <mxCell id="jSwNP9GdJg-Y1JOGv4ba-12" value="&amp;nbsp; &amp;nbsp; &amp;nbsp; &amp;nbsp; &amp;nbsp; &amp;nbsp; Cloud Storage" style="shape=rectangle;whiteSpace=wrap;html=1;fontSize=15;" parent="jSwNP9GdJg-Y1JOGv4ba-41" vertex="1">
          <mxGeometry width="160" height="60" as="geometry" />
        </mxCell>
        <mxCell id="jSwNP9GdJg-Y1JOGv4ba-39" value="" style="editableCssRules=.*;html=1;shape=image;verticalLabelPosition=bottom;labelBackgroundColor=#ffffff;verticalAlign=top;aspect=fixed;imageAspect=0;image=data:image/svg+xml,PHN2ZyB4bWxucz0iaHR0cDovL3d3dy53My5vcmcvMjAwMC9zdmciIHhtbG5zOnY9Imh0dHBzOi8vdmVjdGEuaW8vbmFubyIgd2lkdGg9IjIwIiBoZWlnaHQ9IjE2IiB2aWV3Qm94PSIwIDAgMjAgMTYiPiYjeGE7CTxzdHlsZSB0eXBlPSJ0ZXh0L2NzcyI+JiN4YTsJLnN0MHtmaWxsOiM0Mjg1ZjQ7fSYjeGE7CS5zdDF7ZmlsbDojNjY5ZGY2O30mI3hhOwkuc3Qye2ZpbGw6I2FlY2JmYTt9JiN4YTsJLnN0M3tmaWxsOiNmZmY7fSYjeGE7CTwvc3R5bGU+JiN4YTsJPHBhdGggY2xhc3M9InN0MiIgZD0iTTAgMGgyMHY3SDB6Ii8+JiN4YTsJPHBhdGggY2xhc3M9InN0MSIgZD0iTTE4IDBoMnY3aC0yeiIvPiYjeGE7CTxwYXRoIGNsYXNzPSJzdDAiIGQ9Ik0xOCA3bDItN2gtMnoiLz4mI3hhOwk8cGF0aCBjbGFzcz0ic3QxIiBkPSJNMCAwaDJ2N0gweiIvPiYjeGE7CTxnIGNsYXNzPSJzdDMiPiYjeGE7CQk8cGF0aCBkPSJNNCAzaDZ2MUg0eiIvPiYjeGE7CQk8cmVjdCB4PSIxMyIgeT0iMiIgd2lkdGg9IjMiIGhlaWdodD0iMyIgcng9IjEuNSIvPiYjeGE7CTwvZz4mI3hhOwk8cGF0aCBjbGFzcz0ic3QyIiBkPSJNMCA5aDIwdjdIMHoiLz4mI3hhOwk8cGF0aCBjbGFzcz0ic3QxIiBkPSJNMTggOWgydjdoLTJ6Ii8+JiN4YTsJPHBhdGggY2xhc3M9InN0MCIgZD0iTTE4IDE2bDItN2gtMnoiLz4mI3hhOwk8cGF0aCBjbGFzcz0ic3QxIiBkPSJNMCA5aDJ2N0gweiIvPiYjeGE7CTxnIGNsYXNzPSJzdDMiPiYjeGE7CQk8cGF0aCBkPSJNNCAxMmg2djFINHoiLz4mI3hhOwkJPHJlY3QgeD0iMTMiIHk9IjExIiB3aWR0aD0iMyIgaGVpZ2h0PSIzIiByeD0iMS41Ii8+JiN4YTsJPC9nPiYjeGE7PC9zdmc+;" parent="jSwNP9GdJg-Y1JOGv4ba-41" vertex="1">
          <mxGeometry x="10" y="14" width="40" height="32" as="geometry" />
        </mxCell>
        <mxCell id="jSwNP9GdJg-Y1JOGv4ba-43" value="" style="group" parent="1" vertex="1" connectable="0">
          <mxGeometry x="610" y="57.5" width="180" height="60" as="geometry" />
        </mxCell>
        <mxCell id="MVg5KTkQZKPQUCUnIw-0-41" value="" style="group" vertex="1" connectable="0" parent="jSwNP9GdJg-Y1JOGv4ba-43">
          <mxGeometry width="180" height="60" as="geometry" />
        </mxCell>
        <mxCell id="jSwNP9GdJg-Y1JOGv4ba-9" value="&amp;nbsp; &amp;nbsp; &amp;nbsp; &amp;nbsp; &amp;nbsp; &amp;nbsp; &amp;nbsp; Cloud Functions" style="shape=rectangle;whiteSpace=wrap;html=1;fontSize=15;" parent="MVg5KTkQZKPQUCUnIw-0-41" vertex="1">
          <mxGeometry width="180" height="60" as="geometry" />
        </mxCell>
        <mxCell id="jSwNP9GdJg-Y1JOGv4ba-42" value="" style="editableCssRules=.*;html=1;shape=image;verticalLabelPosition=bottom;labelBackgroundColor=#ffffff;verticalAlign=top;aspect=fixed;imageAspect=0;image=data:image/svg+xml,PHN2ZyB4bWxucz0iaHR0cDovL3d3dy53My5vcmcvMjAwMC9zdmciIHhtbG5zOnY9Imh0dHBzOi8vdmVjdGEuaW8vbmFubyIgd2lkdGg9IjIwIiBoZWlnaHQ9IjE5Ljk4OTk5OTc3MTExODE2NCIgdmlld0JveD0iMCAwIDIwIDE5Ljk4OTk5OTc3MTExODE2NCI+JiN4YTsJPHN0eWxlIHR5cGU9InRleHQvY3NzIj4mI3hhOwkuc3Qwe2ZpbGw6IzQyODVmNDt9JiN4YTsJLnN0MXtmaWxsOiM2NjlkZjY7fSYjeGE7CS5zdDJ7ZmlsbDojYWVjYmZhO30mI3hhOwk8L3N0eWxlPiYjeGE7CTxwYXRoIGNsYXNzPSJzdDEiIGQ9Ik0zIDMuOTlMMCA2LjQydjcuMTNsMyAyLjQ0eiIvPiYjeGE7CTxwYXRoIGNsYXNzPSJzdDAiIGQ9Ik0zIDMuOTlsLTMgNCAzLTJ6bS0zIDhsMyA0di0yeiIvPiYjeGE7CTxwYXRoIGNsYXNzPSJzdDIiIGQ9Ik0wIDE1Ljk5bDQgNCAyLTItNi02em0uMDEtOEw1Ljk5IDJsLTItMkwwIDMuOTl6Ii8+JiN4YTsJPHBhdGggY2xhc3M9InN0MSIgZD0iTTE3IDE2bDMtMi40MlY2LjQ0TDE3IDR6Ii8+JiN4YTsJPHBhdGggY2xhc3M9InN0MCIgZD0iTTE3IDE2bDMtNC0zIDJ6bTMtOGwtMy00djJ6Ii8+JiN4YTsJPGcgY2xhc3M9InN0MiI+JiN4YTsJCTxwYXRoIGQ9Ik0yMCA0bC00LTQtMiAyIDYgNnptLS4wMSA4bC01Ljk4IDUuOTkgMiAyTDIwIDE2eiIvPiYjeGE7CQk8Y2lyY2xlIGN4PSI2IiBjeT0iOS45OSIgcj0iMSIvPiYjeGE7CQk8Y2lyY2xlIGN4PSIxMCIgY3k9IjkuOTkiIHI9IjEiLz4mI3hhOwkJPGNpcmNsZSBjeD0iMTMuOTkiIGN5PSI5Ljk5IiByPSIxIi8+JiN4YTsJPC9nPiYjeGE7PC9zdmc+;" parent="MVg5KTkQZKPQUCUnIw-0-41" vertex="1">
          <mxGeometry x="10" y="7.5" width="45" height="45" as="geometry" />
        </mxCell>
        <mxCell id="jSwNP9GdJg-Y1JOGv4ba-47" value="" style="group" parent="1" vertex="1" connectable="0">
          <mxGeometry x="390" y="-7.5" width="150" height="60" as="geometry" />
        </mxCell>
        <mxCell id="jSwNP9GdJg-Y1JOGv4ba-13" value="&amp;nbsp; &amp;nbsp; &amp;nbsp; &amp;nbsp; &amp;nbsp; &amp;nbsp;Firebase Auth" style="shape=rectangle;whiteSpace=wrap;html=1;fontSize=15;" parent="jSwNP9GdJg-Y1JOGv4ba-47" vertex="1">
          <mxGeometry width="150" height="60" as="geometry" />
        </mxCell>
        <mxCell id="jSwNP9GdJg-Y1JOGv4ba-45" value="" style="shape=image;verticalLabelPosition=bottom;labelBackgroundColor=default;verticalAlign=top;aspect=fixed;imageAspect=0;image=https://s3.amazonaws.com/cdn.hotglue.xyz/images/logos/firebase-auth.png;" parent="jSwNP9GdJg-Y1JOGv4ba-47" vertex="1">
          <mxGeometry y="5" width="50" height="50" as="geometry" />
        </mxCell>
        <mxCell id="jSwNP9GdJg-Y1JOGv4ba-52" value="" style="group;fillColor=default;container=0;" parent="1" vertex="1" connectable="0">
          <mxGeometry x="900" y="-27.5" width="180" height="160" as="geometry" />
        </mxCell>
        <mxCell id="jSwNP9GdJg-Y1JOGv4ba-53" value="" style="group" parent="1" vertex="1" connectable="0">
          <mxGeometry x="600" y="380" width="200" height="60" as="geometry" />
        </mxCell>
        <mxCell id="MVg5KTkQZKPQUCUnIw-0-36" value="" style="group" vertex="1" connectable="0" parent="jSwNP9GdJg-Y1JOGv4ba-53">
          <mxGeometry width="200" height="60" as="geometry" />
        </mxCell>
        <mxCell id="jSwNP9GdJg-Y1JOGv4ba-3" value="&amp;nbsp; &amp;nbsp; &amp;nbsp; &amp;nbsp;Firebase Cloud Messaging" style="shape=rectangle;whiteSpace=wrap;html=1;fontSize=15;" parent="MVg5KTkQZKPQUCUnIw-0-36" vertex="1">
          <mxGeometry width="200" height="60" as="geometry" />
        </mxCell>
        <mxCell id="jSwNP9GdJg-Y1JOGv4ba-49" value="" style="shape=image;verticalLabelPosition=bottom;labelBackgroundColor=default;verticalAlign=top;aspect=fixed;imageAspect=0;image=data:image/png,iVBORw0KGgoAAAANSUhEUgAAAYgAAAF9CAYAAAAeHP+MAAAAAXNSR0IArs4c6QAAAARnQU1BAACxjwv8YQUAAAAJcEhZcwAACxIAAAsSAdLdfvwAALyzSURBVHhe7P0HvGRXdSaKr31CVd3Yt3NOanUrtxJCIAwIgQgmCAQIkcFjGz9sPOOJ9vMbj/1/v5k37z/DjO3Bxgw4gA2YnIOEhEABCUko59A5hxsrnbjf+vY5u+6pulU39E1Vt/fXve45tU/acX177SiklGRgYGBgYNAIKz0aGBgYGBjUwRCEgYGBgUFTGIIwMDAwMGgKQxAGBgYGBk1hCMLAwMDAoCkMQRgYGBgYNIUhCAMDAwODpjAEYWBgYGDQFIYgDAwMDAyawhCEgYGBgUFTGIIwMDAwMGgKQxAGBgYGBk1hCMLAwMDAoCkMQRgYGBgYNIUhCAMDAwODpjAEYWBgYGDQFIYgDAwMDAyawhCEgYGBgUFTGIIwMDAwMGgKQxAGBgYGBk1hCMLAwMDAoCkMQRgYGBgYNIUhCAMDAwODpjAEYWBgYGDQFIYgDAwMDAyawhBEJ0NKkZ4ZGBgYzDmElDI9NWh7aEIQokmiabJods3AwMBg5jAE0TEAAbDyZ5KQ3ql1onx0B0XVXnK6itS9/kXKrTyWEEd6n4GBgcEsYQiik1A+tjk++bO3xyOPv0oOPX29GwfLpJ0fpmXn3y4Gdt9Ba175fepav9+QhIGBwVzAEERHILai4Ydfbh3+5r+nk7e/LYwkhV5eylhErhXZTm8XCccVsvfK74uN7/yftPKynxqSMDAwmC0MQbQz0OfAal5Wj24Nn/hPX3VLL1wVlgYDGXhC+mTHMhL5/q449ILYsfIkugcc6e54RFz5n26ini3PG5IwMDCYDcwopnZFSg4UR078xOf+zDr99FV+aSzyR0+7VnXMyVmeKOQkieqY5ZLnUHXMrhw7FEXHH75M7v38n9TeYWBgYHCGMATRrlCqnWv/lSPb5Ol7Xy2Lp4jKg6JgWWQLvhiHRIFHMghJ+gHfztZETljlcIT8Qz96Kx353gdJWDHfaKv3GRgYGMwQhiDaEaj569r/ybveIPzBlYJ8sqNAWMQ6PwPclHBJzHwQCGGHUgZDy8IjP3wvxdUudUE1NRkYGBjMDIYg2hE1rc+q/fR914qw2MvqX0ondUWvQhMRTB5dbC+IoEzx0fteLQ99+zf5lyRprAgDA4OZwxBEuwJKH6ieWiOpSmQnpkO9/ZABBhvEkhxBQgRS2v5YNx2/563knV5PbFYwSZi0NjAwmBGM0mhnhGPLYn8sT1aV7DhmsVj7w0SAQYCkY0HrkWpBwjlLaJETOWSFFMd7brleHvnJ+/Gq5KKBgYHB9GGURrsCHczVU+spLvVKSjqh0YQEaQpYEKlYVsy3B8KWbDgcvvUdVDp4fmpFmKYmAwODacMQRDtCd1CXDm2XwfAA2w38A33NLGxJtBS+Hgs2HWyfU9anyIoiGvvVNdHxO96u3ifQYW1gYGAwPRiCaDeo+Q8JP0RDT18owpFVSCbJFoQakATgqEVZFKmkbpJF2JGQwrcqpaIM933ro1TceylfhIlh0tzAwGBaMMqi3QBukLFiCKv0/EVWbOWkVYgkq/vYYuVvMwnYfBmC1HNwzkeIYAcMdYodpgsLtCLyNsX5sRd2ycM/fRfJyEkYxAx7NTAwmBqGINoRejnvqLxMwJpgdtDWgQLUu3JOBHSiJLnKGE9W4fuWjGREe772MRrde3HiqP4aGBgYTApDEG0JJoS43Cu9cheJUPVX25Jtgihi7piOdgdVIGnZhpCRoNgXwjuxWu775u9QHOTV+w0MDAymgCGItgQrcO/kOiFLy9EfIVjJJ61O9cmFhRbrFltUFsa4HQHEcURxFPArAkkHv/c+Gn3u0vSSgYGBwaQwBNFu0P0DxYPbKDy5jiKiKBIitCwKWMIwoAjrL4URWcwNEBFPNAhgaUBcN8dHtiKiKsnyqV657wv/J8nITW8zMDAwaAlDEO2K0T27vNN7N2IxPgpYwTfBBAuiBSw1ty4UlhuK8PDPrw1OPfqa9JKBgYFBSxiCaCdkhrjKysHthULBjUkEthViDT5SA5g4yazJ+iGyndkAn0vJZgix5UEV8v0jy2jP//7jZESTGc1kYGDQGoYg2g2pRSCDUh+5ruILdCljFdfZJBZIQhGFDMgpP3oJHfrhB9SbzRpNBgYGLWCUQzsB9XkMWQrLvSIK+uJKmVU4JxGEmUJaUvUrNBPdH6FFNz+NN0NZqq8ij++MnVwu93/rtyis9PDDuMFYEgYGBhNgCKId4Q+vltVT6yiKMSgJzMCOs0sqkATIBuTB5EM08tRuufdrH1dWhNlUyMDAoAkMQbQjysc2x8XDm9WQVYk04v9zQBIK0qEoxCocw7104rYbqXpqg1kO3MDAoBmMUmhDyOLBbaJ8YLvEDOooxu5y7MiHJnMhZgp+IWHYq4x9SUOPXCUPfvu3kwvGijAwMKiHIYh2QtoXEFeOr7ft0LEcKxAWmAHJpIWBLoVGmQCMZJoowgqIhE+RCEiGnh0c/ulbJZbgsBx2MCRhYGAwDkMQ7YTaGkyVbtU1wFAdzKn1gPluzclgumCCSJ9Hh3UUhbE1/PgVdPS29yWuDNNhbWBgkMIQRLtAKWZW32GlR3qnVjNZsFPzCXJnDouJxiUrcskOSTgBfxMd1sdve5ccfvplbF5ExoowMDDQMATRbvBHVlL1yBZ1jhFMDOzvMI7ZJBlGMfHz6I/mo5ChEHEcybGnd9KJ296tyMFi6jAT6AwMDBiGINoFqUqWwbF1orxve+x5bEEki3gLS6ai9XazZGvsb2iG9JqVioiYJKqWCCox7fnyB2no0WvUbVJ1ehgYGJzlMIqgzRD7RzbQ2IsXSkyYw9DTJiu0zh4gh2TnOYtCQZFHonpktTz4rQ9TVO1VTU3GijAwOOthCKLNIIOhFepEWCErcmVBTMTcEUYUM1EEoVCbCu3/9s008tRV6SUDA4OzHIYg2gbJ+CIRlvvSX2hVqsc8tPxIEASIKAwt4Rd75J4v/gGFpX7lAzOiycDgrIYhiDaCjCrd8ejJDVhiQ2BpjHSdpeRiKtNG0jQFkslKFni3bdu11WFlyB89dPf18uQjr1QOetitgYHBWQlDEG0EEZaWUfHQOTHmPsRsLjSq53noj9AkxFygmrNEdbhAL/7Df6S42pveYmBgcJbCEEQ7IRheGY8+f6E6Vwq7CeAKotAyU8AoyEpqaShysAI2KSpEI49cQkd+diNuNzAwOHthCKKNEFdPr6LRZy9kaogpnutJctMBfzYokn/6QLd87u//nQzYojEwMDhrYQiijSDCYl8+T+Q6ViwsLPOt93JADT9MpcFqaGFJYEKcmhQ3A+Bblm1TvsshKj63Pd7/9d9Jr5h8YmBwFsIU/HZCMLhCEYBS+BmlD46ouS8MRFTsoUNf+7D0TmxMPmxGNBkYnG0wBNEmkLFfkJUjm9WPVv0PAOvqOCMzBp6ZRLJfFqUjO+IDX/t99UPtYW1gYHA2wRBEm0CGlV4x9uJ56a+aml6Mgab4umRYkZcLD972Nll8/jIs7ceuJr8YGJxFMAW+XRCW+2nsycsjz6eoGgiKwQysqfU8iDMFXlMnnORZyQDDXaWwVV+EDKsirBZlPnrxfDrynd9I7jDNTAYGZxMMQbQJ4qDUL0aevYhiIe3JmpgWCBbFZMuQ/METJA/94C00+OB17BqZpiYDg7MHhiDaBVG1Rx2txWhUyiJOBfaLFG5XLrbG9m6Xh3/0LrV4IEjCWBIGBmcFDEG0C7zTa1SzUtwe1kMycopR8YSsVogOf+9mOn3PmzHlWu0b0aaQcejWtZ2Z9aQMDM4YhiDaAXGQF6U956S/mndMazXHuk/PcZjWPAc8lxXMq6gTfkdWkCXUMbEkwigUZNmx8E8ul0d+ciNF5X4SbbKpkLJo2Jf+6Jpg6Klrg2N3vU8e/MHvxAdv+Y3oxENvlsWj58lYN4kZojAwmClEMhHLYFERjC2LHvuzP7f2f+kjcRhJW20UxJV0KGo1/BQ3Jc0+883p+HJtUT8+BlFAtuVKkXcl2b1x/NJP32Svu/Zb455bLLDChz8Hn/g1eejrvyeHfnqDRV5eUq/EjnmCLTHZu/0JueGGvxTrX/0N4fYPJiSx2E14Bgadg/nVNgbTQ1TtpsFHX4LTZNG8xUPdiq9QpxjZRJGQQUihX3KsI9/9qPRPr0nIYZH8qiwHVvRH736rfOg/flkc+d5NkTdoV6qjUXXsUOyPHI7joWORPPDLi8Tzn/o0vfCZ/yLDsWXqGWNJGBhMG4Yg2gAy8gpx8YVdaqmL1K1doAiC/RWFoQiDII6P/OitcvS+69Kri1AbZwUvrDg68eAr5Z7P/jdRenGj9Eq+PzrkhCOn7bg0YlN1xGaWsKVfjql4OhbPf+VjtP+rvy9lxGaZsSAMDKYLQxBtABEW+x3XdULPT12aAPXeRaj72sImx3LItW2Rsy3hlYtR9Pzf/yvyB9mKABawRq46nFnB+6MrrCM/+C0x9tyuqFL0qDiSK4REXTJP3ZSjnPKzRbYd2P7QEScsD4f04pd+V5Re2J2+yFgRBgbTgCGIxQYrPVk5vt4vlkSuuyt1bE/YFAmKfUscf/wqOnbX2xPXBayRp2o9PnH/9fLAd98rw2Is4jAnBJMB+8KOY77IJzFG4vp8WiY35wtLVm1RPLRWvvCFPyAZ5BfUzwYGHQxDEIsMKSNHFvefi76HoFpNXTNgpah3pl7EHuEanDgWUaUs5POf+7fSH0mtiIWCkNIbWi9P3PYuYRUdkl5sFRxBeZcob5OA6ncjFjYnXLbG8iG7CbLyET9YluLID98mR565LH2ZgYHBFDAEscgQTBBo+sjlXHILhdQ1Rbs1hHC922FP2TIS8diL26L9P0qXA184BKcfe3V88Dvv8rxKGFSHHRkwEUQRydCnKPD41KeQxY8q6jyOQ3WNgqIIRo710/Of/ROQcvo6AwODSWAIYrGgJ3DFQY5OPPQSGcasyCLlNJ9Q6yxlJJ2c11pwjxY2ZSxyycYwUs93rT1f+4isnNySvnreEZVPbHb2fum33KhIrvQtNCnJuEJxVCYZBSBbJWr/bfaniNnIiDicIBD4H6OxTj3wMjH4yGvUC80kOgODSWEIYrGgVVPs5Wjs8FZsIpdosfolt9sRWD9QSFbIxWc2057P/wflqEYIzSNkbNmDv3q1dfzW62Tsx1boWQTrgJhU06XKAb3Htp3+yw7bVXFcPbaCHv/zP1ZDZQ09GBhMCkMQiwwZjvaT5XM6NO9hQP8DCKMtSEMrYiuiiGvuMhpz6NBP3kijz15OwuZqejKzeT4QV05tkHs+/29UbzQzgLBY/dsO2Y5LVi5XE9Eg2WuO61BcHSM59sxFdOS29/CL+GVq2riBgUETmMKxyIirhzepthBOCq7hChBCDe1Yw1UEEZLNJKGsCO/AOfKFf/iD5OI8Kds4dK1Tv3izGH78ssjzSPpV4fOxUinzJ1nHo2luOhIFLCGJ8PQquf8rvyMjL88vwDvaMaYNDBYdhiAWE1zjFqUDu6I4yrG6pUhY7NTmuko15cQJd8WsnYMq0ckHXkmn7nuDWqNprhfywzDg6uBa+cLn/3XkjZHNH7bYasgVCtTVnSyAK2VcE/5TJ9lrEAebfoce0cjju8WBb/4Lfhs/1L6LDxoYLCYMQSwGajVWaYnhp3azBsypn+1ODozxujYsHinKQ4P858A2efB7H1LhUqu9zlWNnN+Dvo3DP/oIlffssJmc4sBjgyJIhK2BiCWO2b0mUYNkr4HcEP3MHMXjA3T4JzdJb2Rl2yw+aGDQZjAEsRioqSKuHQ/f/xJbVsmKpLRZR3VCgki2dEgyp7F09Q0Q+WxFHL/zejr105sSE2MuauQgBz5Uj2+i/V/7qJC+HXiBtByHLHtcVD9ERrLX6q6z1QHBJDrBZhoLRSfuv5qO3fIR9bnaqq8GBgYahiAWETLyclQ9tYoEV2AttIl0CDJdDSLyBJafjUoHVssTP52b5cBhgShrhE+f+8InaHjPdlkqk2M7yTt18xErezQbwVKoNSPhnCV7XbuPD92Fm4ytsFII9//4bVQ5to0ss+e2gUEjTIFYLLCeEuHYgAzJjaWLVv1EIWIM6TwC43ayckaAkaBIzQexEQXYQ9uP/ae+cgMdvSNZgiM+cyuCVbtakI9GX7iQDt3+VhH4/Nvlaj+/UunwRIRwlFiWWzvXkr2uhBI3JSCYOGQS8mP7+F2vkgdveRdfYPf5G4VlYNCJMAViMVE5toVCWRC1imvSRt4JkOjbVUTB1Gahez0mJ67k5YEfvYeqp9eTpTqsZ56/2HLAPAZ1uu9Lvy+qe3ZKG7PdWKFrRpsDEhUi4pdglnWF5IHv3kTFfRfOSye7gUEHwxDEYkB35o7t3Wn5XjdGuVroQGUntd1nhwCNSFoohu3DWvfkz36dTt3/enUDwjhj4G3MOicffgUNP/iaiIoU22P88iLX+Ct8OWk+OnOkWV6RTMweZD8PPnKVPHHXW1J3tD/h4lmCbCpmxcDAEMTCI6N85OknLhVBsa/WbDIrxbe4wGKDXB23KqMnSe75p9+hyvHN7IqOgOnnsTRuZBQ68siPPywGn9wZxGEYR2WLJOYwgBySPoXZAV5Co54Uth1ZzEcyfOrzv0ljL1yi/MxMl9y3lKGJACTeTJApx/OqwdmJ6Rdeg7kBilxa7GTl+YvIZd1nob3GEjJ2KZrrMslFvU7mERGFZOVlFB+/62XyyM/fphzRlzBdqLixYnHqwdfSqZ++IQqLnEFDSzDHSNWH4Jy5yoLFkBUFWG0sdhzb1Rd3RgdveUfSxLTUrQgdNs5ywfDKuPjQdXLsjvcGw7e8Pyz96jVRbcdARRRLOB4MpoLZk3rBgQInuWRyLfmu9/3cGnzgZXEoIhlHtsRic1agWFtI6CkLc6vTIso1Xk4qa6YDbRqTd5bprfoeWkDNNeAcZVk9sdVzyR56zWevF10b9ydhhu8nQdrsJoNyT/j4//s/3WNf+q3y6HCQt0MX/eBCMkEg7NBbZwREIirFyS/VyY53WRgw5bKnXRnlNh93r/vS9dSz7clp+bkjkYQrCkaX2aMPvltWnn4jFZ+9iqKTG4Ul7SAeOGh17bzfHrji1qjvJf9su32jSzcuDKaCsSAWBUIKf3hFXBwpQGEJO2YqCMkWUXq9DaAqkE1kEiAzYayRFXKVv/zMuWL/tz6aNDFNQ7mktXox/NB14ZHvvbs0OooBUk4cSYrUcFWfo6rKx5Blcn80R5rV8RmEg4mhZkkosghJ+IfXy4Pf/hcUhzl2WLLkEPsnN9Cxv/1zefTv/oeIH3wnhQc2h8FpZudi5MQHN9vOo++Mjnzq08GxL/znsHp8YxIXeNbgbIMhiIWGarrgAlc9tskmrw8jaVT7uq7RTqGE2x5cy2cVJNicILn3G79JpSPb0ytTgTlgZGV4+MfvcKKhAdfJh65tCcdyybFzTKJ2IkylkFkD8yHAzmxRwb8yCtnPoYxf+McPydKhXclNSw0cTP/k+nDvZ/7aHvnZRyge7vZOHgoqpVPS94ZFpXjSisJK7A0eCi3XF4Xw7t8Tgz/+t2wZIsLR2mBI4iyDIYjFQmnPueSfGpBhlZVVxHVZVn7pEtUzQqrnWsp0oclpLkiKla+o+iI+fWCd3PuPyXLg04AYfPwaeuErH3GiMHIpcPRwVyxBkuzrgACdaZaFdYZO7nQUFF6tBwewoH3LwmpYcnQ57fn7/zCjzvUOQeidWC+OferTOe+uG2RYlhR7liM8N+dIK2c7wrU4DuIxy43GnHBsUHpDx6h06Ou/Lcfu/QAyhVDtngZnEwxBLCRUO3t6Wn7hEi6wK1n7JUqrpphnqZzbAWkTkCUDWx66/c1y7Ol0m8/WNVDpjayVR370ISf2BUYroVEj6Xvga+p9WpnPEUASLOiDGxf+rl+y6OD330jDT12Z3tnhSOI88k+tC4/8zd9YI3ffIKXHDB5wVqwKrG9lcyQ7HLUQC2LH5Nq+leOE7O+zuqtDD16rXoV13k1T01mFOSxxBlNC1VrTAjb0wrmui6ZuN1STtgRmJaOW2y7QZNUorRFzdpKY7YwQWj7XyX2yRvZt8J781H9UN0zSRBENPvbyeN8338XVVI6MiM0p/hYYgjWWsB3C/g8Q1W+gLYszAR5VjyPrj4s+Q0d7UDq6Su757J/wz0n93AFAZKHPYb117K//pmA/8TbyKyTCooBQVGGzgn9HHkc3JOAI4DhXy5GACyqCvGGySs9cHJb2XMrvYxZdepaVQWuYxF5wqDqxRUG1KxlBwz9bKWFc6kDImjUUUuiXKXfqsZdFx+55A4awqrA3QHpDa+nAl35fkkdhULHiIKAoDJWgL0MJ4ikr8wQ1UTHi7x+7/yV0HEuYc3p1olKUKp5l7J3eII585q/F2AM3yNNDHHFIF4YmWnTWQ2y+XQmTsOUmR2zOZAWUD/bucoIj56bP8c0GZws6L+N3OqBwgpEVMi71xdjEplZ3bZ4UupkF0paAHtLCiEWgCAL1biVxKK3y4Q3iuS/8PistMGIiKaSM7eDEvddZp37+mphrtLaFYVDJqrZ1MTJjywGKsJnUQ8dtIrgeUs6VJMoH18XP/M2/Tu5KbI7OASeGEHHsD26gQ3/7v8SpX7xdVnz0xCfhUJ38OEWc8rn6nRylcPhppkkl6LUJI6snXEbh4Do8ygnaYXFhMBsgZxgsKFgVlY9uIn9ohdWFbSCgMDHGPxVOkrYlg2kCKgRBUARhJUopPvHQVbTv+x9iJYTlVhFQBekNr7Zf/Ox/sMIiRWxtxHFIcRRnJFKiV2lFf8TsZ1I3gfIwBN9A8wqrxpHHLqXjt7wv9XOHdNCCqUUc+Sc2hYf/+lM0/LMbJTODShXEHdKkmeAfW2YiHUaM4cQc8xTGJILRUZLByDL1+plMfDToeBiCWEikNWdZOnBOWDq4NiiOcoHjanEDQXQSYlYmWpKO3sRACJnlWNVQZLs0WvViR46sjg/+4H3SG11Ols1mhrQwWdA6/tN3WdWnLoLyKjgFNZbLsi2yHezhgD0dbCW6D2LOhrk2AikDQeUbEtlSVIbWxi9+/UMUe124wv9V+rUtkjkncYg9NI5/9i9z9Og7hAiYcasWH9nviW7H32ai/jIxWLHPUZHMDXFdmyJO17B6cl0cBS7nT7Bne8eDwZzBEMRCIdOsQsUXL8jJsbV2Lh8TRriqZNDSzpiG/1CB1cL359wCOcISlUpFlg/d8wpx9I73JveFDrH1ED3z2Y+HpREnroZc0WWdhPZwRs1yUMTDkloQ8wuLv4WkQk07FNhzOzr94Mvo0Lc+rGrObW1FcP5iP8bVExvDg5/+X3blgXdEI8MgB1tYHkcqK3wQgOobqkeSUnxJWVAJXaAvxuZ3xiETBhO2E53aLMKRlXwREWQI4iwB8oXBQkEXq+qJDdQ9QNWqjDBIp9bRoI58U4NM6BdEQa6NNpmh6A7kRpkArTaywp/kW7OiBhplBXfiM6omzp/0yiSCMtf5Q5mLR3tKz33zPfHYwR2EmVh7v/GxaPjFnUkrVPJ+jFqCb4TD1gJLMu4ycYO0hr5jqjvxrSai4zolNhIec5wXi+DEsvjoj99B3uCadDnw1KPtBiGld2q9OP43/6tQvvPt8ehgTOFYQg5WwEHyEuG4QWxmBX0vqv9F5QOOB+j/iC23kCUikUO+8Q7uENFQ0g+hbjI4G9CmmX0JQhUppTKtqDLaTRWfcrmCugTU1clqNfB6KBd+QydAE4ayClj5WDGG8lJsnbz/VeL43W+V1dNr5bFbbrZl4LAGY62bdqAyLJBCA+DWzH2uofpgMdEPs9tlhc2GKJbH7r4uPvLjm9I75t8TM4BMa/ORN7yODv/NX4vRO9/BlhY7BmyMIU5TxZ8uJ9JIoMpqUCepG96WdlorkueUYU6Myd+3k4JT69U99bnVYAmjrTL70gcXx2BoOYUjy6XnUeD5HV/Qkn6HjLByrfvNIVRiSWFFkcixrgme/eqH6OE/+wc59MJWrEEl4oDJI1VkiwUoSojyA0tqSaCGHQdlhw7/6F1UObRdWRHtQxJsXGL5jNE18bG//yvh35/s5sdg57nLWxazUBwUYjk6oH5jJJ7BWQFDEAsMWT2+3g5H1qKtPV/IJYU4o1BxXpO0CUm5a+hr7YgmejNmvyorArVyrFFYqkjr5JOXiYO3vzEujuZV8wash7Tte95Vj46/VpKB8ksYiyiMIjp596vp1M+TTYUa7lskIO/I0B9aa534+792w3tulGGJvQaTYp6GogYjq5KTxWRyg4WEIYgFhigf3krVI1tVe7clRLJS6ThBJIIabKqwoFhVk0cDUSwSbM4yWlQTUrr/83hWyp7zGd9jY+QRH5kc1I4OxaEhMXzkGEnsZZ32MSA+Ep3Hf/HeFjJ9pJbAjDH+TNJEFglHxCL2KuQ99cWPyNL+XarDWs0SWCToSXD+0Drr6Bf+Kjp9xzuD0RMkvSJHchnDyNRtqu9KxSuAR9DhxU6QmcRnnLxEeKe3yDhIV7o1zUxnAxYvk59tSNuKZfnQdsFWhGRuYOWPFTL5kI7UwXmcHFUhZ4G7GkbK7pBOgya12tGLyGbdCpF+xAqNJeBwobkcei+5bf6gyLe1QKlmRfWlxGrP7UgMPXZFfOyeX09eBJJYDHAkYRKcN7LOf/Ef/tIaueudlqxwbGb6FxCWOUJdU1X16LkyKC5PfxmcBTAEsVBI223DcGxF+pu1TsQ6KKlE80Hdgo5YuKUO/J9r6hB2n1EnrW7Tb5R5hurjTUUDKgaCTs/Yk+RGDtksEZ/HVY4WHzexYB2nKYEwZGWmaPV8/e9kFFZi+WB+sZC+ZUlfRs/93Sdkma0IhYWuRYNBRRxVB9eLY//0FwW6991SjMSWNWbFIqRILZMxxyNxEUImCVRVqPrihaSHuiZXDJY4DEEsBJT1kJjlcVjqxQIGXM4Fmo/qlVSbA/qpDpMpI9zLgme08O8oCBOly79xHgYRRYiChda10wWSKBVmCGkXnzsnPviD93AtnQOPkCwU0KTF5OCdXGcd/fyfi/Cem0rV4xEJNCl5HLOa4FJRlQHIbKHfwWH1Dm+3hJfMqE4tYoOlDZRag4VCMDbglE6swwSCiBWjbnaZE8yXpVCn4BO9MC78HcxdQ/MQ+pmVG9c1mfugP2MWIVx+KEcytJXFgFFOURRQiAXx+N5SxeMjv5trvzLGUEx8Bf5vJY1o5Q7/Jn6eHK2eTwH/sMDUExFbEoEfWwe+8jtUPrQjuWEhAGVsxaF3gsnh038uhr9/U1w8EXaJyGL/4FqyZLdk8kVTEyY7g7tghSKPwZzDUcl4WiogCypJ3VNhWzbD2Un8CBm65OuRTOopgyWOTE4xmDfoglY9tUYUD2xJCm3M9dGlV8bQZq+gFI2jiEKGrE1CVjist1RNt652y5ZEKClUCxe2M9D0J4WFdqfh/Wurz//DJzgd57/8qJq6kNIfWiOO/e1f0PAd75EiiERctWtzR3T/iY7buawgNCAun9iYnC1WH4zBQsIQxELCP71elvadmxRiFPw47XOQJFizKkn7HVTtr9YPMS7TB8pvM5kf1GqbrDNV2z2fgiziIGRiiAmrZKCTvRYWK9k/D/cGXkhRFUNcF6APQivQaStSFJHxYiL5mzGFtjt427ui8uELUuf5AzKHP7w63P+ZT9n+Izcpv3C2AVmld4wD+aMxj2i3ZtemAXwlEcQX//eOnMuJilUm2bGJHwyWFAxBLCTKRzdZ5eMbJTkhm+tp3E9HSXUW1MgfJVBmbD0wQUisq5SxEjB3GuSg+iJ8vhmCRV7xTJsCzS7CyZHneVQ88cKa0nP/8H+ml+YBifKN/NNr5PG//5Qb/erd3uggxxFrZbU2CeebutFK8xdv42SEzZSev4iicq/6aehhycMQxELCH+kVrk2hF8Q21+a4GsiOSIJEUUJhtiuSYbjJRDYI+lFwDLGxDxbWY+WvJYxCZTlgoTe2EUjCivDDppnNiV3KkUthJaKxE6wAoXUwnFcLvgVRRJpViNOEfr4m7IuszAAq3CxdrkO9VmTZh259dXD66ZclV+eyNo13YYb06TXW0f/9v8Sp227Czm45O0QnCEcoeyJLDrVwTBKeWphxnpFpQ+3yIZ1wz27sZZI6GixxzKyEGJwhoFqkkP7wcqXkmjUPLAUoRcVkx9ZBQnjshCFKbEWg0clqGIKJeyA2Ww4Y9opzWfVYDfGDgs/bsY9GJR/8TFQo790onv3MH6VX5ipNFTnE/tAa6/DnmBx+dhPFVTYlPHbFqqypFaZIYoHjB7M145Pr4riSWBAGSx6GIBYKYbmfxg5uRq2NFaeaILfgBfwMoUYrpdCWhBqt1MT/IAVkKnVkgRWB4byWsMm1XNJ9ELCgYF2opihNKHysVv3kvXx9UoJIlwVfcMBLIDJMnUOdevDhK+Lj97yZPcw/ZrscOL+Y/0T+4Fp55HN/Kcr33hRHFY6GMvNCwHkIEQrCHU+PGQPxdsZxxwYMKMovrkl+I5UNljIMQSwQ4urICqoe2JHUM6dhQUyrA7W9AHUBpQ9Fn1gQnL0wchUEwe6Og2U5miPpj3CYRyNs1sMOdkoUuNhOccF+SVdFFbGQbnxik9jzrY8l1xhn3HGLyMJOcINrrJOf/x925RfvkQF67n2uTIz33SBOJiXOeQXSIRBh+fi25LfBUochiAWC5Q2tptJzl8SBT5aFtRK4sGN8uqoRpoUewsq1BihG5caSzjVQbs1kAvCeZjJ9aGsBaLbUB+Y0qCplCoxM0r8xCc4rV1QTE9wQvkqZa8IqzFheBOOBoprgH8InsGlZhSVISYLDJjGiUtd8szVgdWSBvtSi4jMj2WuQGYPfoYWJQYoqv6bK72KSYMVdHRwhOv3wS+ngrcnWpHQmVkRCDjFbDnTs0/9DnvjW+6Q3yFFS4qhLRrepeGBBXGbjXOWPrKj4xXWQCkstf6S/9X1p1NWkASD7ZoIxy3Zpzy4ZR63Z3mDJYGYaw2Dm0DXK6tAKIUfWJyOYsiywtKBruOi4BjkoWoL+awmtgAG2ImKXIiy9EeDZRNcqfdcOUMoWJlFiQVgyEG7OikXxwFp58PvvobDSky4HPgMf4162sYKh1eLE5z9pn77l/UL4zJqeJSxf1IY+44j2uEWCGsmEz/uhbXvPXE4yyCdXDJYyDEHMN1AFBGIMDXS40murhlwoUSzC1wlQ1k0KTQB634dGxOwOcsD6GdgydByKKpJThSwxjANxE3o+C5bkQDMVx1kzPs3WohcCqhZeDyhsNmLQLiTpyB2voaM/eZe6MO2+CEUOMgoGV4dHP/PnovSz9yNbgHuaznM4EyCNmqTTmULYtrCDAxeJlCA4DyxwQhgsJAxBLATiyKbysbVU5apx3P4FKtu01EgCihhakAMQgRi4yo/BS6rpXA3Z59ovC6DIpYlkEYYxWxH8AsyLYHJAnwbeoUQDz+A3jvCrlvkGrCFlESXfElbI1OFLEQz3yWO33Uj+0Ay2JgU5DK2yTn3+L6yxu98XVEoIDHPkGeSRSa20OUSO0yQq9sZBMtQVnlXuBksSC5SrznLEXpf0j24jnwkCNS4uUmgtUC0GqcJJlODiJkeWGAAQQXJkL6eSRVbBh2FIAYcv6auIKOLfE5bPyCr4BmTfhXjBvIjREyOsjLgybnFl1UGnNftNEUUaV9NRiiqOMzKnQHxha1JPROTFwQvffgsd/0W6HPhkSj65JqORlcGxz/xF9dSt7xVhJVlLSW0TOglqfQoaiIM0HprFR5q/ajJbhB6JvCWiyvF0yQ2DpYw5yDEGUyIc66exZy9UCrcD5kBoKwHZYzJSaAaQA66hqci2k7kMEHRKA5qEGqUetuq3wJ4R5PFz4BkQFN6hFB2OEH5OPT+5n+YWKDK62ODbAVk2e06E7Gffknu/+0GqntjCVgRHRDPGR/oLGbPlQCf+4S/l8M/f50hUHNRKgHytgVTbCSCm7gLJ6pgr/EM7U1eDJYwmGdhgzhGMDdDIk5dj73fC5v3Tga4pNkqbALzRwB0KYchkoEYusYK39UCXmWSzRAEnQ2UdNr5CUpsKMWGBdFoB15pen6v4m6wGjk5rGTD1y0icvvc6OvHA9Yl7/YJ2TIT8AsHm1sgq//Bf/UU8+JP35WN/epZDG0A1fWEkmvQd4b1wcepssIQxk5JrcKYIy72iemy9sEQ8Z52PC4UGpVpPDEn2qc174KOeOS2ETY7tNiWRyYAWbcxSBjngfZHacY4d9YtSq6EdULNcYG2xqcVmgVWpjpL37Oc/IcvHt6Z3aY9bTJoxZkgH+z795wX/wfdhfwkRhVLEAYeVw7kgFtBsgJV3Y/ICz5XVZ65ghxmmrkGnwRDEQiAY68dkJ1YRrYvUXNV0p0Bj0w50rRbUkJMmJWSLpHkIkBRxBT6ZqxCiAswSsd5DpVegIzliq8FL+g3c0CE3AlnwPXE6B0KN9kkCDsuimQDoe3BZT6qmJfVum8pjHlWL/HIPpFNQ9ykoD+PIz6fDYbPQ8wbmD0kcqXjCkuYsasVaEcTh4EOXRkduv0HdBsqTauZfLP3hNeLwZz7pjv3w/bI4GFNllMOkm5W0NAJhmI40YDKLZxaw812UL3QLW4xsY0J0U2eDJYq5z0EG9YDmKB/bMFkHbedA71uWUY6oIEP/YRkI1m9whRUwm4UHVed9ClghmI2tmpqwAC4T2ML0NUwNbT2oSX/KUIhFHAZCyiCWz/zdv5Slw8mMY2FH2M+Bjnz+v4vBH39AYp4D+cydPgcGzVMcHi1tDjQfKoSBG/m17UcNlijOvBQbTAtcy8rL4r6d2GEUW1BPfyRNtnaYlcVCklXQlJRV4KRWb8WkOA5r46ilOkzuf/1OGDAhmu5V7T9W/RhBEJFfwVpEk4QfVkhqiWShLYm5tyj4W4oEtSQQIAgvFPHwgS3Rnq//BtwkOqSPfva/i+KtH5QWlr6dw3kOC40o5KTh9A7KOekfSpvRDJYqJpYogzmFjLwuGnnmEvWjWSdqm6HWrp4RzGtQ56r5CUj7HFhADALkwDVLdY7moSbQo5imCylC1MfJ4dfh3cnsan5HK8uk1k62MFAjvRA3aRxBlJUIAUkEvuM9/42PhKfuv5ZO/N1/E8GdH5R2wJEUdy45MJJ1oWIKquUCeS+cn7p2bHgMJochiHmGjKo9weBDL1VjVCwuSJ1SlKCItXA2Qacz+hHUshkcmJh1HTqQvYqvJrXBPWcnqy9ohZkVZSFM0symuQeqRtX0wTosQeiR49jKoBgdHGMrBUtO5Igc/pbyH78TMs+ohQVkWSPKeqBPB35Cc5PPitSrHFtvH/rLz8cnfvCRuDhIVB0WQoQLnAOS9BuXM0MSfrYc3JhiOyTLCrucyr7d6WWDJYozzzEG00NY7aLqiXW6yaTdUVOELLptvebGijFZdTUjbDHADduHTgY8PxWgd8dlPL7QpwHFi+9FfqCaORTZZJqUtB8XCvjWuPXAhgGLEA5bW4mhY/f20orNax0RHduCvaIFmxy1neA6GKgkqBCIIEflvZcpR7PcxpKFIYh5hu2PDeRkIGyMdUfRSnVY0zH7iwCtWLU0YoJbqqjRlKSak1hRY8QSmqHgPllN1dKrsE4bWpmChEBAFvl+SGGQduzOB5T1Uq/Em8VLM4DYYNl0LVtB+dUriAZ6+Vk/FpHHRhFbDsp4WApFDnthgKe9FRw3GF42T4lhsNhYCrm1fSFZY5YObUkUTioNyqezkJKDIgit7PCb/6Yqoq4D+wyQNDGlPxoAa0X1RUDR4ib0+U9y/9wjDTuLWjEFccDnMVtPMbkUkUOUz1PP2lXkrBggGVTYiyFXujGUVaOT05+jnMObpLFapD0Xe0Nr4LqQqWCwcDAEMZ+QgRuXnj4fw0LV0NBaGYqVNQEjIjEkUqWBmmpaW+V6eSKClVFGZouJ8w9S4tJ+AFgJAGhOAHS7u2piEq7a0AcLtWLVVdXMlCoNK0qsEHXeIMDkVlPiB4GmGnU//KDDy9dElHTfVARVh30KS8wUjqsMMjVCie9Vwt9XNX4ob/iX/ZaVRuj7Vfu66oBNgXfqd+G9eBfmZqCVKOTfgaMmxYdsPQVRTB5bOLFToP6t24l6urh67fH3kw5dBb1MON6H72hJw12T7DV1fbaof/94eGcmWSDv2lbAhD3UE1cO7VCOpplpSWJiiTGYOzBByOFHLkc0K2WLcoa284YC11aoU6J8XvudEAE6qCMmAjBEdgMhrR3mtrFhYvZUfR0REy4a+rHiK9BE8c8ddBygWQUExOTIn41Y+SP8tuWSz3FiF3po2eYtRAWX0xizBj0SLmKFb85ajR1tQY6nr6ryyNFey9t7QeJSywIGSwjzWbLOXujaVOzn5dCzl1toP4cyjQM4qkvNxuwvBiarKQKNbhJ7TGPYKQcjmeOVPBc1ebYResb0zJAoZw3sWgeiwgiquBo0tQrODPXfyZJOEgeJFeHzaaimTPtcwQ9VJ373shXUs3Yd0YoB9iBHjLYWkNZ4FtYMsoSuZHcgSWiv66MVOWQFlX7LfzEdyaSvGCwlzFXpMmiGyM+L6shyda6UBB+n1qOLimTk0rgk4GyiFSZbQGq9pTAZuZOF1oMLARGwwvbQQY4NhZy5Iwq8J30XCEFbDwpMTiAHGC8hE77P8VPi+OhZv5ns9evYPyWOmwqRyxUCCFsRHCvJs0sGugmQ00DGjqwePjf5ZbAUMUelyqAOWkn6w6uspGGcFQ0rDJFjmVmUozBmZe6hFWCjv5Lfai0lVoYR15YDz6fyWIn8KtrXxz3TWEGeUyDeMmJTQgZonq+O+UTQwXCzck3bOLSFo6URCF9WsBteFLJFhKVDdLzw9/A7wDw3fkeAmeNOD4muZbT6gouJenvgGY6nKvuBLYeQSSJLDh3erASMkwL+YBIj24yY8R5VezhOOPL4h+mHWHJo1AoGcwUUltLhrVytdAibytR6apNDuyKrTFUNuiGLKJc0KDaTnVYcuFXdvgCwYiYKthogssJKCoOEoPyztf0zRe0dSZOSak1Cf7E65ziBu10gz87R8m1ceS7weVSlMKiSlePndPOSEvbbEiCHZkiWJ4+ZB0s9UeXYBhXQBUp/g4XDLEuTQUvIyJZjL17AtckcWVzjFAGFFsZoMlCQtHQgtArNQlsQmiQ0YTTKXED1Q8RJp3mg9otgJcwvhwXQGlDUM1DWiij4CbaeIGob1IjdrC4S+V5atW0nUV8feyYkGxv+1BECV6b5CO5sFPXe9N2diNhiguTUT0aFcXTY1WVWdEotSsiVis4NmEFTmASdYyhzOzkTNPToFcIKbbSHxJgop9rsZ6Ck5hF69m+dxYBauAKUwDigDLBHg6OUMn6Py4KjpmDZL5gXEXD1Hh3nGASgFBdumlm2Hg9/0gGuLSQVD+wecvphkC36Hsb8kFZs3Uq0cjlbFB7Ffpkcthwc1+HzqiKGpQpVAUCcZJpJo+rgirC0/zyc8+U5qgIYtAsMQcwxxiuxsU3DT+5mDQPFI22lZJ1UuWWA+5sUqzlTwKlCBTdlZVzR1gNKAJ9VQzpxDtKImEgqIUUVTxGFxS8YV6IJsv6ttxTwselIA3S/Qx2YENhTEbuzTYaJWuy/iCqlMsmxKlGAZ9AXYXM6JDIZNDFo6DCAENWQXgZ8hg5py82T09NHGy4+n6jb5W8V+Ts+WVgzKqiQDCts2cjkm1b6/bqZ43jfxPjuFNQRn8o7fGQ31xpZaQUvXpReaJKTDToZnZtj2x1RpSuqjHapc7UkBQpV+0S3Vo5xnBUwAvyo/clHtL+nIkJZRwyNJLEwSPyGtZrgXdWsxApcopkJ1oS6DqLQYZgaNaJQ8ZE0KUVxqI4KrkuB41L/NrYc8vzuGJ3QTAiY5wDFqUVDKdBUlhQQnnFBxQekaIviWlw1WHpYajm4feCfWmvbcS79lSqM9BR6OJX2QX1WQA1abSHKpKCErYjaZjHTyDbZMGZl9oAfUn9gdjUsHVbsGH0kPTWkqQUSpTYO/ZslVeZoPsHM6GSeg8dh9siyHLYeemhg6zai/h6+HWSQdkJrf6TPKwGYLMbDDEsstcbmJPyLhSRsenFGHW+ikKOgVOyVMS5YqEp0dCgN6pHmaIM5BYigfGQLhdVkj0zVZqtl8aFqy5njuL+4jKNphAs+tv2EWKFQuhDNUkmFepHDUKutJ8pZ9aOwKYFOZGwslMV4+MaBfgbdTVQ/zyEJF/Yk0qL6HPhP77btRKsG2DEhjaU9z6E5JjZ3pvmAKw0iHF0eeafXJ8xoCGIpYZFL+xIECghWtxx54UKKK92pK4Oj2mKlMtMoR8HMyhlAT2iDwqyRQ6octcIcL9fsPyhNjGIMWOmWfbWsBWaDu25mT+gUaGZq3tSEb86F8kR8adGofy9IDeHxqgFFbEWo8FrZ+xF29FewRxE2lrp5Diz4HXJ4ERjMc4itPIVOL6288EKi7jyRV2YLqqz6HWYyzyE7x2LyUVbtBoQJI1cTUeccr2qehxKA4w6JHx1bI4LjyfaqHOT0aLAEUF+KDGaHTO1Jnnz8ckFRAcqIFYMgG+TQHmWnRhLqOJ4FoGSVIBiRJBHQuCWBdv22QEYZM2kpolNIFD2sCNUUpvsPGpCQZBpO9LukTWdwR/NSTA7FTo48UaBl6TyHIABJls+qeQ4tweFVMa6yDsdHEJIVn9pA3v5dcOaINzplCcEk5lwi0VXJ3/Khc3Dguje0iDrDyJtxClkcZMlhfCkNBmrWnB3UBkFpnwMETQuJlTA+smdhAQWclQR6mG7yg/2ViscWRBAGdeFMztN7+JiQSnIOHoEk8xw4pdQ8h35afs4Oor4epRBtWA34do0QtDSB9stShQ6banfEelQ203TcT8HJLcmFNqkFGcwJlnBOXjRIGZR7ZFDqVu3UGOYBcoCi6oCiI6AtQQ5c/jGyqf2zCPyXCAhMrc/Elo8artqkSSchOyQSwgZDKemUxvDZgJ8f8wMawJLdK1dy+IOa5WDlmUz8qnpmHC1IYkmD4xgHWBLYWxsRyNFvyeIydVkoBjVYIjAEMdcQViz8odVSlrtijxWKzTUqVlSWFak19JMaKB+gwBIdNTmg4+qE/2RlEqhaNoV8xNLUOCYfHG+WSZA0K2HhO6nmOdh8m8SaRD6zRAPwaDPhv3Wiw8capE7OFNpiqLMcakgIQs1f8B2qDntUGfP4ISgzFvafDh+pdTMSf1R9j30Uksdu0s0TdfXRuosvSfocgmRdJStZb4hNjCpZahIIvwx9STXBbyRxMvdBoxZ+9kNWZguEYzbSiPF0QtNRVuA2Dv07eQ+fqYTHgwEna5WCyvEVURi4nHtgWmQfNehgGIKYS+g+iMqRLTIc60NNVQGutaaJRUadkuLzBqWVKNFkPkAzhdJ+qA8P+kscrO7KeivW+0WkgE5TZMHnyeZAyXXpOOTbDq3YvjXZzwEjlTDPweGbdbq1S/q1GxCPXKOQ1ePrZHByXeqalAODjochiPnA6IsXWNWxAXWORn0c1I8EqLEtFrTSR/9DPQEkZKHmOwRsbYQxhVFiQdRbCosNZFn25wT/J1AbM2FToyAmv8oWGzyNEVkpEUbCYquBrQkKWEK26vJk57C20jm1Poe6Tug6NCkueG8DyZ5V4CSIPY8cObhFhCc3p45tkVMMZo+zOGfPMWA9pE0+cvTZS6yo1CtjIVU7LUNH9EKQQ60phi0BJakybaZQs4BHVce0eiZ9vsOKOvodEM4YS3N7kmxsbCMdvoKmJivhC04MkEQkHBrxQ1qGeQ4rVzApYp5DZj+H4OyZ5zBd1KxijVyOLa289Mb2bbfC42yCMcyifUsGJiHnClCkaq0KVj6jhzZSdzcrm7SxewFIAZisfX5iUqvht7XzOIooDAIKMJfAj5QiyHHhV8qWA6A3EAJhTIs0sEYRBOspZeUMMb6HdgLd5q/ds9exawQ2FKqMeuSXAtXhjvCEkc/hiaga+OTFOfKtAq298BKiri4iv8hxUOF3sJ/jKieinzx01gL5iAVRkBVGXbRg9rol4u5utyD9k2bJjSWGRq1hMBtgglzsF2wR58n3SXRl5sktICazHLSiV0CTEmt7kEMUY/0hth74EvS/BYWbVQQdBnQIY3HEuAJLgskPQ3eZvys+EyBbDlGum1aedyGTQ4GqYZWCoEx2nosDmpbURDBIqiQNJkfSp80VonK/+i2siPPcdKoRBm0OQxBzCeyq5Z1eLasj/VjgjQKv7QuJJge1/FCUMEJjxVmpScH31LXJt7fy1PM2qmW2IqoRxWGowijYaiC3j1ZswzwH1mdMCLV5DloQToxeyooqKmdSXPBsVjodrcLBROyProtDjyNYxFMMsDPoEBiCmCvURjAd3cym9qq0Jpq4TejsXDhkrYdxjHfyJn0Ogr0bsSTLeCcNZfysOra3Uqv1t9SELSQOgBrKG7Hqr0jyPbaOApsi6VLIsvKcc4mWLaOgPEqRXyY3ZymJgmpKBtMMs2lqZ9OBc4mOB+/4NhmMrk5+JFaFQWfD5PC5RvH5nRYNrqfKGCuoAJoqvQDMQXRD4WcEr9eimoyUdsd30CaftPljwlvERABJOqDxbOKXnOOSyzVrl73qoCIN8uC/avZTCosVppZEeUI0Gn+nmGWfw5kjCbvaz4Ic6i4sI68qyPddEs4yWrnrQqJ8nrnbI4dvtW0QCUY7BWRjWCuQ9mUoIJ6yRKB/19xwzFzXQKVgESsG49Dp00Ja+rNFuNJ5H6omocwEWMpsW4Ych/6ec614MBnqapqYlgSa5ACDGSM7gqn44vkiGuuXJCJhRezOhQ9lCVp3EZDMhtZICj3KNkgClgNXqfkmQfAqJscBimM6BLX+llSU9YBKbYx1mizysQgfWw1lJqu+zVuYHPQ8B8/Mc5gTJCpESiuW/v5zRHg67ag2BLEUYAhiruFVlquj7baZtskkNdd+0T6PjlyMs8LaS7qNfirUZkTrUUptBQ4Pav8IH9aM46MXcdjYYlh/wS6ijas5XUAGYSqNSTQeR6BVJazmsjJj4BtZ6XggDJlwoGLEImwBe9EOqqdXpO7ZmolBh8IQxFwAioMrsKxlcxT4PcpNaZdESS0kan0LdaI1GytQ/k1c09artGpdiaYpdFYvBej5DtiB1F7RQ5suO5/EmmWEZj8zz2GekI5konBklToyG3Je0xnPoENhCGKugBqTN7iawlOrqFJSLuTmWFupqwoLWqdKyUmP5kkE7pg05iirAcM/g5JH2O/BZrecW1BEgb0fNLnMHshiWZkpkufglax3as1K7BhGEfmBT9VqlQIOF+Y5VDmw1S6L1lx9MdFazJAOMAyTk4mtnhnMc8Bckax0DpKaPnw8mUyNTNpN5wH/+LY4LHfzzbKjosugKc6kxBq0gKwe20DVwxvUj3TSnIJSzMnpfEMr9nFBm3x6Di8xUWA4K5qWYDnYsZ3qyYREOrlhAMHDnIbQ5Wzd36UsB+oWFKo9pEtpnwMH2sxzODNw/mimMvRqAYDwDu6iqJgsM2MsiI6HIYg5hKge3E6lA8nOWljFdQFQTwaTaPe0cEeodUM3RjEf0Z/A/lbXNJorgcWCHr6qMW45JJ3RWUi08WOy27IcrbqEk2Ej6ykrJEeytSAwRAvCgW/sF4AgDuriwWBagJmgrCvOSsKSfvG5iykaS5qZjAnR8TAlYi6QaipZPrRVRKP90nIDEbWftoF1gL0Sah3TrBezSlEZGG1ephPfJn/h32Q4KxMfHwPLIi9HtP6CrSTW9jCRFDmcJaIcB9zlmzF6CWQwbavBFI86TBl3UuasoQ0yTheqNOh4mBIwF0hHbMSVYi/G0HMNN6nKe6yNMeIn0chcfLj2iivNpAFQ1M2kEdk1/NH5rHyC1Uv5HIJlu0EEMdfCUb7z5JAbWarfAXs46/eON4glSkCRSTpiKSt16ypBpkTyvnGpB2JqMtFQ2zgoyyfxLDb4Cfn7seVSid0rHK6KJWjbq64gWtfFN5YVQZDDpIA+B1gR2OgC4cyKKgKZYpBaEsn+Dfw7YaFxmYDm4apZJA3SaPHNVBqh0kkFazwfJJIGT/ktKw3AKye+dtxZW1iKHDT0uyBIGPgNe35jDa9QyHgwGcnX9M0GnQTOtQazgrIeuIjKMGeFXHNCkUCbbJPCvCCAIqoB5/VJrDYBwj4JrOzQ6dpS77XdEFYOmvKrDk9yLFU8ijDZrbdA576MyaHbYTKpUhyme0izEkPTUyLqEYM5R4Y8OJ6j6qF02W9FsQYdjHrtYXDm8IZWkH9sg6q2qT0gFiZqa23ykElJKfEPRvsEYbK7nGVnLQBdI2wv6LBpsM9ZwBTsfxYEwe7J0eZLdxJtQJ9DeqPBosDCyL3K8XOZpGHGMQwtdzJMcZotdPb3Tq6V5QPbEyWbFgrdtNAuYL8EHibEtZ910AoCyzqkwGIfasMfdkIMR1ZMJcunjbuZHNYNUFwdozioKiVl5XIU++iUbgaT7ecaaiSTiIQMA0ljey/hxOhNLxl0MExJmSPE/qGNovTieZHngTMssjhqM8oNOBODu9bGnEr9wnSQdGmJlJOCMFA7wYXYEY4thUIuT45wueqNHdY8clyXbAdzIZpDf6eGGfc5TI5G/zfu5QDUWQ1MauNrSmGXOyYFDgd2ky67Me147cuJ1vTwxQravznKOR4CrAsUJOd4T1Z0lm838p5zpBahDmdN2Dkrc4w44ngPX7iYorIhiCWApVxCFhb+6bVClnuFcPykNlVPDosDK+kflzJZ0lsNW0qakTph0pcmCe1/HD1W/pHDVkRvnjZfuTvpc4jLTAosGOKahs9gcRALJNbQcopKfamTQQfDEMRskdbCRIVNarVUdAOghxdRF0OxRmqdpWREU4KEKNLBV22NxGqIVLNYwJaRnXfJ7e+mDZfsZMuBdRDHucWWSG1+w5wjiatxMZgMUuUqR0ovXdW13h416DAYgpgtUB6iIE/VwTWEJY8FWsjnH7oZBrVqLTWoppNE1CZAGLGEEbZhdhHvdgCGfY43NynU/A5gYh9bPmyQBRwMn6M6yEnaeNkuorX95FWGE8sBo5UK/C6cq5nS/C5FFhmFrptYDOYViWXKhaJy9JzExaCTYUrMXCAs9seV/VskCEKNYMogtSDgqq60kgag3qXqXqlig/5MRChJko4JgP9qCZgMLJGutZSKZeWx1QFRVar5DwKrnNZBP92AOepz0P5sLgytuFUYOWzoP0f4cA7i46MXRhQ5OQq78rT1VZcSrWR/CWz0w2Rgc+CwAB+W78aaIYg0i1+iIpCJUf3DtPZEat+rAefZ3ylAMPNikcwUOn1aSEt/puHK5rHJpAEtnKeEYznkCsuWlRcvknHkps4GHYomJcNgxgiGV8TF585L6ucL07iftRy0JBfYD0oBJmQQ+ZGaFIcF+Bz+126oDwNHnSYKnPPRZ9KNHXbr66Jtl19A1M2kGJfTeQ4Ij1aQqbSNYj/7oPre0G/EXOyE+y9lky6fXjLoUBiCmA300KHq4Bo59NwlMnbZIa2e4gpGMrWA0oXJ03MCvWKrTlJVkeZj6PlqrwfWqon5rxVoGypStNb5kUdRxH4O0HfC/sOoq74Crb9oC9H6Xg7UAvu5jeOr3aCsUywhj5xd3XuejINCesmgQ9FagxlMDWg0IBhdJmK/O3ZyISthodrTdY1+QVCfjLawyGEvYG8ciZnTQTLvoR1HLjX6Ccs1RCS5IspkwdFbzVm09sJzSKzrJyzXHQe+shwgrec5GCwImmUny8bICKpWT+WjwKzJ1OkwBDEHkMFIP8pFtVxJigzM7HSIpoZqEs84Nf6eDLoDVzcjqWPaFJO1HNDG7uZcpXQlF9LYC8jio5vOmA7OaIJc8u5xOTPUdUQzavMcGMq/HCaMVhK2SyFbO74rqFKwacvVF7LlsIw/zbQRhaqfQQYBob8Hk+hU0xQ669EsxVKLexVH7N7wr9YEp6VtgbgaX1OplUyJ2YYXyZQVBbynxbvgKbbyZN4SoX9qU+Jo0Kk4gxxjUIc4dKlyZIPNMdnFypm1VKL8oKAWBPVJqBWl6uwNI7U+neq7zUxEW2xocoiZvAAoeT1aCR3SoeuQ7MvTlsvPI1rZy9cqhE2Y0CUvMiRjsNgYz1OKrASnT+wlpxS7snzoApwbdC4MQcwSMqr2UPHAuajRVkqj9RPkZtmko2vdqpacEo4+b/xdW+UUVgIL9nrA7GltqUxj87R5wUTLAXHC1o/qgEGHc/08B+kyyfb30pqLzyHa0E9ks9UQeHwdQ4hNdm1nIJ/J0OP8F1CeDdfcyIFL0ksGHQpT4mYJ6RcHaOiZi9G801Xomh0jzBBNm6jQ3IKaOQuWpdCd4UovLzgaspdMtj1NyM1Kluxmr2bnOWA/hw0Xbhnvc/DGyOKHLBAH9pHOwFgT7YekMhChCuDYpb2Xs4PRMR0Mk3izRBwUl9HYE5dDMdvSUetnJ7V6LihpLV8BtV8InCCwLiD6dwpd445YlPpTI2cSqVkLXOZUbQ3nXANPluSHeR+TA6uBJWmykfyUrUQTRa0JKpWpMf79ROqhvNNS+H72K76D/RzikB35HHstgBwi4ZDPx6IvKXQLFHUXaNurLiJan+ecWeF7qslAMPACRi+lG/7w22rkWJvnYPFRrX2FB8azNfo3sqLiMystwlVrs28QnQZnKo1AOJQgTHUCNyDrx2b+TKUB2nl8qfNEZgztkXEPtYTKX7arjjF2pqIj6+PQMyOZOhic6w1mhbDUK6jcLbn0qXHg8w0oqhpSxZVB5LMiYEXMvlG/VaGdf19NA6xc+S+8pYgpVbZVL6DIZcLoytHWK5kcem0KwzEK/RI5ebYaoNRqkrwpwRkoO4P5BaepZTnqiPSRbsmOvaE1yUWDToQhiFnC8ocHEmXFghrzHCouVetEkxEf0VafrYHqc3UPiyIEFt9P93vg+1WNeZGh/aeBvRywZLeyuDiq8lhbqTdPmy7ZQbS6b8paqkE7A5Mzc2wROYmFF5fzVnB8u7qk5wwZdBQMQcwGceiK8qEtNfN7AYqAajZKla5WvFkiwHLfqpM6o5TbBeAwkEPI2gPqIhAR+QVJGy/dRWJtP1XLQ2w5VNhyyCsJPS990qBtkbHsFCnAetBWrajkqbL//ORc/TXoMBiCmA1iP0/lF84LfaXIROP+D3VQ7fEZ6wJDPSGpu+57SMb0jxMAKl6QmLVrjPtrSJIul8upeRBhGJHHCtURtiIM7IVgUVKTUwV3jlDzZyqT7ecA0QiZuCLsU8FSrvpqP4dqXtLmX7uCLYdu9mRABUeQg9dgPwcWx5rY5s8vTYXvy4Yrq5gYIKDOrrMiryCcabhqws5ZmQKIgqzMHohjLQz1Yvi1Hso5KncL/7nLExeDTkSaygZnhLDcQ0OPXaGWGFDKiSWjKOcDdcoSQ1tZcB7HGCqKgpr6ZU4W2pt76D6HENuEXnEJUY/L5FEi8lkK7elngxkAq+mCMDgPChk7VHnu4vSKQQdifrXZUkdY6aZTT19mhy4XBps1dRKduuaqjun5BEx2bQZArTzCcFYul2pyXBsD9OV05cnu7Ur2c1B9DjE5sAi0YqnVRnFsJgZtC047aYUUK+H8iMUho2qPjEM+mUs71mChYAhiNogrXRQUexNTv155ob1dY7bNHWhaqlkNDDVslJMOfIDhomrXOCULzRBoAhpvbgLU8NlaYHX24vvYsor4J/Zz2HzZuWqeQ7UyNG45FFyKvUp6v0HHIiV45E+VDaJqPvaOblSOsyoFBosBQxCzgXd6jYjHBNms2LjWFIRldmxdy1XFQ0sKLBGulgln6yOZlwClK7icJessoW+hRgypu9rvgatoqKHFrHVjNDX5/F1fkshwhH5udkAWaSUM1ZyViCYuiO+Hqk8kCGLV5xCwm+c6tPXXLiRaw/dbJXJy7FmHLQfMvmXBela1ThM1Z6F+DoPqjEfwm0kD5rrv5cyB/DCJ1FlNWaRx3CyszaQBLZznHZjjouM95nCF/kiPLB/aoRzGaw4GHQLkQoMzQmxT8cB2NYFLLUGNrS+TK/MBrewxL05NjANRoP+Bz7GJnc3/cuiUVnctHLRlk/gvIbdEDyQKTu3n4LJ7X1eytpKe5xCMkQPLoaYgIQYdj9SS1OkaRaN9jneIawWJa3o06BAYgjhTRIEriy9egGGbygKIHbJZEKWqks/AUas9dc4C3ZmV6YO/gZp6CjwKQooDdD6wLcHVb9vB9xcTiaLHHtFqlVk0RLsuib4CrVX7OWBtpWkSgSaORjFoY+h04jyJPcJZbFHql97zl6rLfCU9GnQIDEHMFNpMjsMcnXjoKnVaG7k0rsCyyl8TxpmjPpnQiKP2e0ClPYjIirBVvCAr3aCo8XOqf0BNtBv337whVeL4G7CBoPdzIKytFJfNPIezASlJSIqk2+2KqHSYawcGnQhDEGeKyM+Fpx+9ONmPgX/bPkUsU9VyMSM6K9kmmjphVoGgz0H3RyCxXCxah/eEEQXlqtrvAZ3T2FY0wlpHKeAnrM0E0U1fs2mTz3ZEA9l5DvBvwJYMZnHDHxXfU+RQt5+DE/H9PtmY2xAm+znYNpqk6sM9Pj8kkeycCv29GQGPZGXBgLgaX1OplUwJWI1ZmSkWNPycnqgswZ+KJFiQbkFciMKATUls6jEzu9lgcXEGOc5AIar0uDlKtDXA2V5bCqozdc5Qn0SY66CUKZMCLAe938NkUIo3RaOiPxNkiaEe6HNgsmqyn0NYLaX3GCxpMDmAJNC8iGEF1NVL0vH7yD+NzYM4wxiC6CQYgpgpkL1RC/JProv8MmvCZNQOlqwmgWE4zaPUQqGpNUW1RsvRN2kNMoqx1wMreRbsNd3y/jnCRMsBEYCaf3LMQjmpPodeWnvROUmfgxMyqXns16DWBGaw9IAsqLIhrAaVV3NMEgWKyhVyc+Xl5B9ORjLxHenRoANgSuwZgVXh2Is7WOWrXuGkmQlRmUSnGpKpSktiZreq4Z9R5KNPGqOY9EimeUWDD1U4+aAsh2TJbkWOOGflH7BUc0RrL9hW63OIKyWyOTJy6X4OWTKbT2JbslDKt0GUeyr1p4k6VoK8yEe+H8OjJSvwmAqcnbpZesmnfpYB8mgVeXJNRtZlZEODwI3v4WeqYgX5YoACflcsCyzd6kiiQJXSkZXk70tHMqlqhEGHQExsJjBoCVSbVSGLbfn0J/9MPvbnfyRkgE4CJgVWlDFqyTbXmCUJB9YERzC0oCqxSTxnoxtNNcnr9LWk7GQVf4gddVgB45KNuQ8VSdKT5FdRK4+oy+1S9+lHpmo+atx6dMrkh0Lhm1Q+4Y+wilff0quyYt8Jzw/JLuTIdyPa+ordaigrRiupDmnsxQpAQQF8v4L+rb+vf88z5jq/10iupf+nCJdW8ONJrjDuS1wfT7MkA6qTzE38jTTdq0GZidihnOWShbiHO8KsRhahRbSPJcf5yaGIjwG7eZyFqwGnY+jS8BhbqOyepHvSDwbr2Eo25eB/SasquhNIoM/NZ6NRUL6LxQ5omRvwnVV2h3/YypW+zOe5ijDw63+d2/JvfpdN3xwXjgDpwBWpuU0MgzmHIYiZQBNEHLryno98Pz58+/WWmoiQdEbKGJvu23wbF47EuGD3NH7TeM5Gd1OCSBVyAkyUSwo+4MQOxWP8O0CnMBMEK1vHyadXE8wfQUBZSLUIIJSGXpUVk+Bkzia7r0utykqrknkOAEYqYV/sOuVpCKIeMyAI9S3dv6UO/G59o7qWvC7ktEF6xViPS3KewfwY1fzZTeVyjjzPokpASk6NVqjEFY5iNaCyJ2h0DCYqEwR/E8O3R0dL6qVCMDHw0W4gCJsrBfmCTd3dDnXnJa3oirnSErObi9ZGJg5brlrVL3LLr/riynM/8QE2fV0uJNhNCLqHOQKHJBCGMNoPhiBmBGhwRlTtim553WPx0HM7bOwSZEX8N1UEGKUzCUHowo57mhEECiWW806apfica3YJkmYsf5itlBD3Yc8H1MLq5z7MNUGADJI8wuHi76khvdBCfI7YwDahYY9LG3bvJFrbzx8oq0lwQI0g1KIgKRo/qP2bxOy8Y67z+8IQRPY76Y0WLALOQ2l6YA8GlXf4NwghFmg66qaxao5Giy4NDks+OnTytGCLwaaKH1A1lDQ4UmIOgc521GY/yHf6W2hCTNKd60VYqRh+FSAPPvCN0Oc4Sq4kwXqO45D88hjlHEsRhMOWRa7gyFUr+0X/wOpnNm65/G9Wr9n29IpVG5/tX7bikGWBZZLXcbroGFBfN2TRHjAEMSMkmVhWTq6Nbn/rffHwi1sdy5pAEIAquIzGfZOz0a0JIlmFFdeSNn2dJiAE7A6nz7GMQfl0hRxsyJIwiCq8WcyHBQFLBYoi4puxTSj8h/lu2M9BLdl95W618J5XGeYaZUAOKwcg9NDElDS11dD4QUMQybEh/OO+1PlIHfiEb8S3VJMR5w/KMREUOG26mYZ7KGIrc7gY0omhKg0yT58ckjRWzNHpUVIE4Tor2EcF5Ss12iiP5qYkbVHpQHUDEx31dzUSCwQnSVMTK3D1E0ObAfxGVhyPX/gxZmuySi5bmCgWtuVGXV29h9eu3fz8wMDACxs3bHhy3bp1j2zevPlXuVyuzM/ipfyqxKowJLH4MAQxI3AGRnSNPn2Zf/t7fpiTw+tiz2tBEOpQK9hacUPJAzreMXdBFzZVSLmwqsLB94EDsIQGrIjAw9wBfkeFa3OTLOU9FUE0ImuB6Ge1RVOrNTJAEvi8tHOqWQkEVXEC2vHql6qhrFAG0dgg2Tm+qaYsm/gljY8JSONLozH+5gpznd9bE0T6WxNADY33pdcbw58eGxU1auuw3kAN5PSxQx8Vo346MZqjY8MW7T/h0WjZpZGxgIplKP0eFnRI4wk0NSX9C4CuWyCu9TnyXNM4R/j4ObaY0+cz/tLvszgP6HCo+NBhVceYLQYZRdJOBnRw3rbtat/AwOG1a9Y8de65O+44b+euW9asWfO0Lg86rQxRLB4MQcwIKEocZYd/9M74l//6b61geBly/GQEUWtz12io8Wcnt2mCwBEE4cToFLRJ+gHXxjEJjckBskAEAaDmiDwSYjIeB6oUcBBc9lVPjjZefC7R2h6+iWuReBYrBarzTJNSI1plt/poMQSRHusJApWHHOcPttBiWAHL6MCxiA6eimnfyZCGKgU6ydZCbPeSJbr4nS4ni82WBb6J9Ik5N+n0rvcHsqVS3Fn/8v21fJ2GD8MU1B3qvqzf8A40eSXvGsf4d6DomYBiTgOJARd8n+0LqXZydx3LWzEwsG/juvUPX3Lx7u+cc86OO3p6ek4xqeAFc5wLDKYLQxDThTJ/WQRn2Kf//E+DR//HH8uw7LRuYlIHLh/jBURhCoLAcFHV9MQFUDUr4XoQUVAN+cj1wDhdkK8FScw1QSDYGKkUM0EE7OxZOZI9edpyGfocBji8TAiVMX4R+6+HFReW754MjdlNK6T6aFnaBIF7a+4twp8es0pYygINlwrky1V06JRDz+2v0smxAg2Vbapw4ki7m7q6VrOlJ1R/QChDlaZQ3BpIb9U62fB9XavXFm7i/9SvtSO82STfZd5fy/eN4WOgjHAOTybRSc53lpBViytYXAexI98Gabj5gqx4QXFgYODA5Zdf/r0rr7zy8ytWrNjrOI5Zl2URYAhi2uCsD23JBOH//EPfyQ3f+Ta/WJSunRSJ6REEX8soX6A5QcBKSAgCy3jHbEHEVa4HMkE4XMDVq+eEIMYLbw38zSRP4D2WshzgnyAKyWfTv8IccO7VlxOtH2B/Fcmy2TcSwx35ftXn2GhBNHyjMbtpRaLjK4WOvyVHEFrhsjJM4ia9zvUOvEpHA87Vcu5oHmJiiKibAuqnZ58v0p4jIR04btFosIw8uYxErl81+XnVgAqF3uR5GShlnJADSAKuSbNlvfJO3QB2H0+G1J/avxqN2+rWwp0cawRT9w2NeoJAc1SAzix+R44TRrBt4eTybLS6Si8FQRDl8/njTBJffslLXvL5lStX7snlcmZK/gLCEMS0kRAE8jHdfcMvxOmHXsq6OBKhV6epGxW0rqHX3NNGWh3vEStgDbQTY34B9nrAmkZsmFDsRSQiLuAYzcRHRRAzSrJsAW2CjAKDn5KRK3gq8W/IBIblMzBmEZPgtrz8QqJVrIT4seroIBXyaMpIw6Y6ToP0d+rW+P3G/Jb5/kJg5vldh6M5GtTlRGQ/xzdzlmGFzO/E7kmoRSN+4G6HSomzklR+xKxz4faxxdBFY95KOnAsR3uZGA4d89RktEh1NHfxMelf0BjvTB73d51FWOfh5LmJ+Sl9NvMODd0/MI5W8dMqXXF/cg1+0dYNSAr+QBMrmqIYdR9Cc9MVV1zxhd27d39l1apVz3R1dY3qe0wfxfzBEMS0wZkRGTIYGYjvesft1tgzl3nlapzHinMZzJ4g2N5mgpB+QhARBqtzAce5WnxvxsnVqqAmyI6CQvBUZyYUVOpfLLyHtZXU8hmYIb02zzGRWPsC1pLyTxo2Vdg1QQA4Nny/Mb+dlQTB53gtCAICdyYIZA3X7aUgtCiIHQrESnri+Qo9uz+kwycLFMgVFIqk07kOmThUaZJF5hqSurWF2eDehByAxlFwM0G9ytfQ35n8vZo0uru7h9mi+LvLL7/8i+vWrXvCtrFCZqLHDFHMPQxBTBvI3pwBx569qPLTm77VRSd3cszFourV5ewzJgguyBjDHsXoFObfKUF4xQoXHbT8pm3HqobZvPA2x+QFr3GYrBck6zvpNmnYR1h4T62ttA77OfgUVBMr3+1m68Fnq6GmTBCW9LyFglFaahEx8/w+eVxPGZrGz+H7Om4Qx8qKYPCLMMg0sjAqaRm9eETQU3s9OnQyz6SwnB/rpjDC7Gd+PqP0E4z/rq/h198Hr0wa/glpNjHs9e8/EzT6ffoAASQjoSJr5cqVz19zzTWfuvjii7+5bNmyQ7iMewxRzC0MQUwXqNajg/r4LW8N7/v9z8rSsbVsDsc5tAVkMFF5J5drQ0e5cOs4xzFSE8n0K9Cw4/C9fIomplBQebREDhOHa+XItW21jefMMHmBbCQIWAx6NAtaQdSS3ViVdX2ytpKwmaBiTIRFgdXvHreCDEE0oPFz/P36KOA0lzl27iZP9NPRIZue3ufRMwclnSp2k8ytI8vqV8NL0fEcpXHfFJxmddlxApEgpSYLT8O1Jmk4GwsC0BWPMwUIAmASYIM6lrt27brl6quv/t/nnXfej1zX9fgSPoDrRrHNAQxBTAdoe1GD8axYPvvf/4ge/+SfiThw2RmNMnXFfYIFwflVx3FCEkkB0Yo5sSDSQqPyNivmiJVINaRY7TMdK8uh1vk3Y9Q/10gIjcAe0tgmNOlzsJL9HDDPAauyVsdIYKeiDJJimHHDbyiWVp+ZaTiSqBvH5N6fEtPP70mYGj83Y+9wvaIGrl/4/F6biV6EMVtiAVthBbK619GJ4X567oCgnz8yQp5cy4ocfQwgjmTZC42p/D9xlFF9fCsLpCnq03Xi7wRqbswMUOsATzGH+kbNq2CSsPv6+o7t3r37a1ddddXn1q9f/xh/A4E2JDEHMAQxLTAPKAvCjqIHf+Of7D3ffb8kGz0EaXvQOCZYEKlC1hYEuEYdU/fsWkuqMEu2IEK2LEAQQaSGuWKgh655TaHfm6BeQWQJApPfuBCNF1r+BpZgwDwHtU0odoJbv4xrrRV+zuc3hUwQuHHcz3VFEMSgf7fy59lMEHxz5Eg14TDH/4TTx2RQoGPDOXrkuZie2BNSkbZyLPereFXKtVaLT0YioRO7HvXxifSsoUlctyYIYDxdFZpaEFOGuA6NFsNc6puUAFDDsvm9YtOmTQ+88pWv/OSll176VVxmMSQxSxiCmBag1RMLwr/3Pd/PHbz9zZKr1IJCrDuR3pMgSxCIW2VBZAp1a4JAQWIJuZgGTBBeSBEra1cmS2TPFUHE2dYgRqiauBJgBEnA98u+rmQPafQ5OBEFlSLJKKRcjvkwXQNIY4J3dFBb+XOpE4ROf90U00AQGOgp7QIFUYFKwQA9f9ClJ1706MCpPFmFdVSNXX5H40g1fkrNF2NtOMH/9fE5UYHXX0dezOahWg1/Ahk0/k7RYEFMpX4bCaKRoGbb5JRCe9YqFAonr7nmmr951ate9T+7urqGQByGJM4cc5I6ZwPQnERxqd+K/ELqMkE3TMCEzD8xutFmrNuNVVMSCCMI2Ypg66EJGzSa7JNj4veyRQWFNZQRi6SAxWMXtZ/DhQk5qP0cqmOZ/RzcuuenjoCzFWm8I/3rIslSK6mSs5qGg3X0xME83fVYmQ6c7mdiXs9abhk/A3JI9B3SWg831vE+s/QH8HxGVPNfE6lD4+9xZNO/jWCBBfgYB0Gw+rbbbvs/v/KVr3zuyJEju1NyMFn1DGEsiGkBZMAZrbT3vOje3/6SPfjwFbUmpqwSTwt2Nk61pZAseMdISUNZF5ynMXIJ98RctVfDWsc81TkdYe4Du2MtJkArhlaL7TVyifYBlsfQ/kHzhMO/QQzogMaAKqzgWap4FNuCPCuic6+5kGhNH1HOorA0ojrIa1CKhCWrUPSH8P25qQ1OirnOrzWFN0FJajS4N9Sga3Gr31OLA05XvlXpLbV+ErtbeSrLXjpdXUX3PhbT0wclVUQXv6OP7BD1DqzCOrk/plEtYbROh1Zvr0PGD42E1JjPpsIcWQjTRkoICmvXrn3yta997Z9ecskl32b3BtvZYDpY2NTrVOh2ofLhbeSdXq3OVaf17IDXCtbSql2ZBYvxYZapKlTzVLCyBRzKrVguU+SwY2+Bzr36Ui5VWACuyOQwhJUQEmWhZTIssCJoW6j4TeIC8YsmpdjJcfT0UclfQUeHltOtd5+gp/Y7FNpb2HJbTiEmuzERI7pbWwh453TieA7SQec/laYNkr02HVlgcJyj0guRx44du/jrX//63951113/MgwVA6vr6kaDaWHhU7CTMfLsBVb52Hp1rjahnhzjHdMtS726JjGSKeTzTB0HygK7t2lAsc+09tYIPI9NfkJU+9lvqvObDRS7x6HNu88l2jBA5LLlEEZqdJXlpGP0G9EGiqDdgNwguThBNBILkciLC3R0rIueOJCje54o0MHBTeTHy6lcCZkQML8leQ6bMGVnRU8PuD8rM0Pj043SiGb3TCaLmE/Q7IRRTv3f/OY3/5+f/OQnf1itVvvhZkhi+ljQFOtIqGp+kp/i0Rd2oGNaSjvkfDbzTNZQQEACIAeJ/SDQ98Dn85lzYQOgWUmt8sDnAXugYke08eJdROuwttKoalbCrnH5Ale43BYEYTApFFkgngVbCaKPyuFy2n+8jx56TtCeY3myu7dz3PZRVw+stXHFKadjqRlMGyCCcrkMRnBvv/32P7ntttv+tFQqrU6boeazqC0ZGIKYCshGqQUgg1IPuTlUDWUcJEtgqH6HVJQ1AEFzEaT2G6Nkk74AUAA4JxHMlpZUsPPksntY8Sjk94YRRgoBE5MHo6Sygj4JLckNaZ8GvxuigQl5Eb8XO4dVg5DKcUCj5NGOV19FtAaby1cIfeXocwBBgKyo6ik/ZkUxS1ZaQCvJzgUUNQTxmhGkeUbq4oaVO5S8Ige+NbS6qBisoMefJXrwSYeODK6iCvXRkFdmqyKqTXrEm2OMDhNs200Zbxm/KJkZZvf0zAFVnJWFhuu61NXVRQ5bw3fdddcffO973/uvQ0NDW/kSJ9nCmjSdCBNB0wJn7WCsX4RFrvIxItTDpwOO3hZ5EIUFTQsQDGeNQzQ3wF0/Mw9Jw+8dK1cpwr7ZfQXa8dLLiVZ2s0LyKMaS3ZIVlqnBnjEUSYA4mIRhOWAY62PPRPT0XptOFvvJ7sJIpVyiKLW1wKJXXB0Xg7kEp4sqr7AcHn744d/47ne/+99Onz69k39jb4p5KGhLByZypgOYpMGpNSIqrp2s1pyFrglC0A6tJQtFEmw5YDlvTIzDevhZNFvWIPuurEwHuE/Y/MWeAm3cfT7RhhXskG4Kg5VYlaIymBaakDgIHulJfoEGh7vouT05uu+hmE6NbSBZ6KWyP0o2x7XL0awmpKs4x1LpWG8O4Kf5vcgX2fyTlU4D5m9kZbGQJYnnn3/+3WxJ/D/Dw8ObDUlMDhMx00RcOrg5Ht67Qf0QDZo8i5rimCJqcV96bxjEStQzM8qrFmd8LnipaCSTkZJ36++ohQD51LMD2nzJucl+DsEohaPDHB5JFhbeU0NoFq8QdxxgLXDcspJJfmIdLbGMitFKOnisjx59NqLRYDUNV/JUDtiwcPPKYlRbIIBMMtlIjVxTaWYwXwBJoMkpDEP59NNPv/NHP/rR/10sFtEngUzfgfQ7/zA5ciqkNQ+rdGiHVT26XVZ9yVpAWLbD15CvoJyxBBqLRLs/2v+TPgfMY4AbZ0y8QikSjExStUR+FF0No2MVCvDbLahRLADuTwR9DE6dJEmWUSZQLCxqFAx/V89UBeEElYgiPlarPl/j7/Hj5778YrYc0AGNVYE8cvJ2UjSwKivehf0EoPBSgZ+zou5tJg2AAoQsPpI0ailIiKaWUxrHCEOd8B/dB4H44nvQr4ONk/zYodF4DT13vI/ue8qh/Sf7SfQOkNWbY5Ohl0KZ5y9yWqn4gqVgMUnklOj0xLXk+jSRpv9E6DBODtR1mtV30OzVek7GOGb7/ELD9/1a7D722GMfuOOOO/6Y3dB0jNSdScyfFWiWswyaQBaPbhS9ea7+uQFbqVNkJESrlnEoooBiUR3GfKqGter7MCGu/v7pQJNJtkMav1UNFZ8KApIOv7e3izZddlEyCS5umOegn52RZjqLoaOJCdOybYpDtgJZyYv8enruiEX3PDxMg6VllO/bTKGVmfzGihxRPN4kmJCE6ncyWDBw+eC6jhruat1zzz0f/9nPfvZvwzDMJ5dMIcjC5MzJgMyC/gcgrnTLShEn6udUgBJAVqtJSgSYMY09nrE7HIa4akU+XeDWrOA7SuFkapJ4H5oxlPJ3OQj9BVqD/RzWDyQzpKea52AwNZTSZ4ZXVqRDg14v7T1doF88MsbkMMBk0Utlr6rS11aCraB8/o37pwbuaiadBm1JtJtFoYmAy4F71113/Tsmit/FyrApcahrBoYgpgHOMEGxj6rDqwTXBpN2lplgXHEDavJcSg6Y/6A6NlNJqWhaSJqzkgc4Q6sjgLZs1EiRxUMrpirXi9ZgJzgsvIe1lYpjZp7DmSKb8ul5FHA6OstpqLSSHn7Wp6PDBSaH1VT22Z0TVY1UizFabWbpazD/ABHYtg1zousnP/nJnzz66KPvSC8ZpDAEMRlSJSC8oVVUPbWRfI6ugFUvCjoLKhpKuAqfzHOAJIobRz0fItsvgbWVLDQnwV0tyMcvUhLyS5MaFjgokfFO6JgJRUn6riTpcD3ROkFQJc/31Mb1QRhTMeTzLoc2XXkB0abl7FmPtZmfLA6I7/O7ms5z0P7BecM1dX2mwCNZWTAkdW7EVFZmjiSelYDoVR9NItJy2SZwqRR20XMHHXr02YBE11oq4dMux7KNNOf7UoklH9kTKvnOFPBDVmYIkFRWznZwnha+78sgCJbdcccdf3L48OFLjRUxjpnnsLMR1ZPrqbh/O+cmLlVNeuQmxfjtqEWiPUit0go+iFihpKSAu2by4qzC1kfAD0MKWH9ZAz20cfcuNh+WkY85DlirNUNCBmcAlX6cShBWztjUJ7DWMTkQPfVchdzCJgoF1lVKbk+QxDeaV2DRGbQfQAYghePHj18CkiiXyyvwO718VmMmOunsReXIZhp9bpdMJgywhm8dbS2zlartcY0fq7QG2DoyTvoilOu44lBNEpPUDGFxQGoEgXvT+/Fpq+BS3J2jdZjnsHYFmse59uqxgRJwjVa9IBGDBiBOsvHSIo6QBdJ+hEj20sETa+ieB9haC/qJuTkDNN9xuqDt3a6S71YpdKqKKIzqaT9oknjooYfefuedd/6r1PmstyJaayKDGqQ/vBxLIbAeDkkEaDdIr9QDBR9Ku9ZspKMXSp8P6BvAyCW1kxuLUvCTojF5kt+1GmpKDACGT2KeQ5AXtHbXZqKNyymKSuSXhimfd/kO1l4FMITB5EDa6vTlY5ZMNblyBSEU3VSltXT/k2M0WFlFvuzhu7GXQ9LfkPQ5IH1052wq2fcZtBVAEl1dXdZdd9318Ycffvg9cGI5q0miUQMZ1CGp60XhaL9dyLHtENcMT63cVaczA+5cA2EdoG/AiCVB5apPgY/d4SIl2IdYrZjHsNTcBqEUfk2F4FxdZmuDHdDBiSXBYVXUvslHRQjIv5attgkN+b4qX9t4xU4S2we4AlslaQdqFzi8Gau2Uoi1f2pfUsJslwgHQAVOK0F9PXWvXZ8pEJaMwO+zkUYoL0NUWLKSfDIbViU6fKkkaydB2G8saj6LEsQxvxjpiWV2MddFRFSNq+Q5OTpW7KU77j9C+weJPHcZWwddRHY+SSukL9cEMD8GcDhtcszekMmsw2kh4/c6mQB8Z+K3dDhr0mKG81SWrMZUzzdKu8P3fcjKO+644w9PnDjBZjgyQZqVzkK0f4otNqJqj/BPrqcwIL9cTh05x+iOZCsjIIgMLHbLsTJx0DHMhUM1D0HfcMnEpDfbTqN/WgUH92BGdKLqNMqVCsX8Hau3QNuuvkL1ORArsbCMGdK4kwVH1QFiMGM0KGGR66JRP0+nyyvpuUNssVGvWrUVgvSB1TDOo8kzAIYd6xnUBu2PY8eOXcqWhGpq4oqJIQiDFvCLA7J0YBtqr7FsYIApAGXgMgmwymBdIdWifAIjYBQ46hUxNEoGqVLKAnsSwy9YBRYCjnF6crTm0vOS/RxyaMZiiyWMyMFsb/WOie8xaADSQgk6baDsJwJNSEGQJz9aSQ896amhrVIWFPcm/NuQfgxl3RhS6ChwRY+LmBRPPvnkWx977LF38O8YcyTSy2cVJuZogwS61lA5vTo69fiFwhGU73YtdCyrfoRmgmt8ksxxgASJ8sA6F35IMkiHtWYhp5vvtJJHkiXJhj6HIldLFTlgElwwSnF5VF3L5/PN5zk0IR2DLNL4rVl1nKZo2uLfMu6mUK6lvQeJTgznKRAr+Com4DIUsaTPGnQ0QA4gibGxsQ0PPvjgx7Bek2VxKT4LF/UzuXkqlE+uzctDu0pemdV80jtQUyIsWYKIQij/bJSy7QA3vibCmHVzzJlPCxOGsgZwXt/OnggTDJOJ51fID6pKgsBjkmEFz8rI53edDsq0/dcuZ8uhj8kgYHdYKElTF4gq9sbnOfCfVOAvvIMP6rw5dBt15wJECBlPK5UeXMazUrMcFBp/8/O5AkeTRRVPknBW03B5HT3yrE/luItELqeu4TkshlhPEq1kZpjd0wazxZ49e6594IEHPoJzLkcdXSLOBCbPtYLukY2KvWoEkIxZB6S9y5Mgu0Q3rAfsM421l9DEpHaOmwma1PY9TIKrVsle0Ue7sJ/D6l7OuFWSqs+B/dnUQmA/1ZSewbSg4xErKsocdXWtZpLuoyde8Giw2Edh6KpNaBIkcYvqw9nbWr20ADKAFRFFUf6RRx754MGDB6+CFXG2NTUZrTEVwtMrJCsJbDKqRhTNUNGi2UkpmYAtBiYIRTt1tdSZAdZBYcUA9W/fSHTOBiIsxBf4FGCmNBYFrdWcpwAUmVFmDeB4AzGAaNVMxqQ5EQRBsocOHSnRM4dLVBLLyBI5yrFFhvygYpyfS3aFm0bcG3QEUpKIT548ecmvfvWr9zFZ5NKmprOm5BiCmAxRtSsuH9gkIkkO+gowg3YKIOtgCKoe1if5WYlKKF+I0RehohyVEEjD+zRx1MRR70LnKATLgUddLq3ZsYmczWuI/FGi1HLIYdluTHdgBaX8kMokrUgGLaD6jXBU5xZzu0VjlTw9va9IJb+Hcl0rOPkcNiqzekLRRHJqsJSgeqwfe+yxdx44cOClcOCfyBpnBRD49NRgAqqn1sjH/ugvxb6vvUf6aF+SNhR2VrFjtJAG9mNAW7SILCYUh1wmldHBEbV7mEg7o7memSj/JkBtNPTwPiYCpXtYOQXJyCc759JYWKGt1+xOhrKib7Q8yBYEaq2pAFzblewHrarU8No2Ul4zz2+T+zuros8E9b5B2iGd+JuimlzktAztjfTovj6667EynQ7WkU/L1VLpmPOA9M7WJxtHLCV9FBkssoWBZjGs5AsBcCwUCsoyXblypZKenh4aGBhQx1xOmaU1nD59moaGhujw4cPqHPMGsL5XuVxWAyOQvmq9Lxa8sxHtrm+UxZ8Bh4G9rDxtXXvttf//N7zhDX/CceixE6yL9g7MHMAQxGQYe3GXvPu93xUjz54nI1sSBiE1FHhd0AAYCGpXsdgmN0gmTFXHyqpG2ooUskgIgm/mo1Y8YRiyIcHP5tlyOH870VYsvFfmD2FaHJOCYh9sWYkjFFJO+aHWnc7vAl1Md5np+cbM89vk/p6ogmaGet9kCEKm24DaBSoGG+iHvyR65kg3ebSSs0EhucYAGQOtVEW7EQSglTdk9erVtHPnTjrvvPNo2bJliixAIlD2uK8RqLBUq1UqlUpUqVTohRdeoKNHj9KRI0cUYdhqPZcEeH9jere7vmkkCABEAPT39x/56Ec/esOmTZse4p8Wu7dHoZpHGIKYDIMPv5Ruf90vubIQC7QzsOKHlZBFliCgYKKYCQJOVf4TSJLKImAopQ+FnfxsDot8jwsulHqq0GPsVJa3aM3FO4jWrWCi4BeUh5mEPBJqCQ0oMlgQfD+XZ8nkEOqCze8BkiaTpP+jwfstFdt8Yeb5bfIyOLcEgfhAJHKaqfh3+P8APX+4m354n0XDwSbyZT6dFKcxUYlm0Y4EgW03QQiXXXYZbdu2jbq7usl2xhV7Fo3pBaWfBSzoSrVCIyMj9Pjjj9P999+viANEArJBBSeLdtc3kxEEn1qve93r/jPLnzERBsnVpQ1DEJPh+N3X0V033i6jKBZhpAgCg5KyhQQEEevauaqtFyj2IworgSIH1cTDUQxFMR2CqPrJsho2Z9TIimmYCWD7ZViye3XSCV0dSZQMdJTLyieAJYHvw2P8Ha7RMpUxUsUEP/E3sVm+RpYkDEHUQ70PBMERE8c9VA7X0d2PVumxPSvJtzfzbyy5oW5N0VkEAWvhJS95CV100UWKKLLIpo3O443pBesBlgUmYVrpSgD6XpDFsePH6KmnnsJ2nqoZqrGJqt31TTOCAEASOPb09Bz6+Mc//nq2vJ7hsLDzQpeghcXkuftshz+4inM052rONGnGRgaPokSCgJUF8pOqdUIRW+SygsaSCpgch/0e1PBWfkbvEYFjVjzPq5OYa1wgHTQrjYiAtqPPYdsqogIXQpADtiez8F4W30v9BYE5z/fw9+yIrRA+Qmz2h6X8gGtJQZ5Rltav17JgQMSOr6nUSqZEmjYtRRWBRGqz3GGBcRxbhT46cDxHz+6N2UbrZWley67DhPc3YKrrDUBaZWUqoIlH9wtoQOmhT+HNb34zfeADH6BLL71UkYNW1qjtJ31dSbMTav26b027aUHTEwQWh3YD8C64bdy4ka6//np6z3veQ1deeaXyD/Izjo3WRCeBw6cCynG74eGHH76ZTznoMypJHYmpc+hZChn5BVncu0Nt5IMd4Fi5oqDpQgFBIUTBqBMsp8GPoP+Bi1D6tubA/fVgJcVPSS5ofp554fILVYe0RJ9DJZ3nwGpKL5CGLKuEn9Nv0m3iWSz5XDxHqKWHhXRzqFgWdOy0S168lu24PFuPcYP10H5AZ3G2jwHKefv27fSWt7yFXvWqV9U6pAF9hPKGaFiZPFSXt1myxFOLL4Z+lyaWTZs20bve9S564xvfSCtWrFDkkP1Gp4IrcfaTTz75LuwZkTotaZgmphaI/dEV4ld/+Jdi/xffLwOuPlgOl4Ac17TSzkso5TTutFmKVTtlhWvyPv8O2MrgQiEtVvh8Hzq3VR2kQcOEAVZY1XC4FtZDPn9q9SXnJGsrufxseYhC6VOuwO9Qm/40B96P1yujJv1M0p8B3yZ9ECjI+howZR2o8Xq992eM6ee3JE5n+Tn+4OR1oGxc4JsYiWC5OYoDm44Nr6Jbf9lDR0dWUVkWyOebsxMhEzT8bvhe/fubYIomp8b0mep9mhwQz6jpX3DBBUpJowMayjuMQnVPVlnj/pgrQRFbpaOjo6oDGkSDfD08zBWTDDDKqauri5YvX66OeA+e1wShodM55DKAjuwf/vCHqiN7fHJhe6JVE5MGwpvL5YpsIb3/oosu+m7qvGRhCKIFovKJzXTHDT+xRp4+j3WGFFiMiZVBUDOTmxGEQ+EIm/dsPaj5D7A6+KnaEcolTp5RfRL8PEhEA/dU+c+Wyy8g2rKS+YjvLad9DmjKdfmbXgV3skxUfFAeeAeu4jxRLvUEkdSOx2EIIj1RwLpLPtn5ASpXCrT/5AB9+46QPGcnVdnfIStQR9S3209Ih0UmCADKGpbCueeeS29/+9tVcxJIQfc5IA0guukHZICRSMeOHaPnnnuOTp06RSdPnlRE0ajQe3t7adWqVbR161Zau3atshTQfAUC0iShj/iGPt+7dy/9+Mc/pn379qnf7YqpCALXOU6iK6+88p9vuummD6TOSxaGIFogGjuwS/7gqift2HPUyBY1OolrYJxBxgsp1C4KAl/mGpgVcI1p1CMXq+jxNTXiiZ9FHKthq7hRYG9iLqBKsViq38Gy2HLgwlsMK7Tt5Zjn0MeEwNdL6HPgL0CJaMEXs0plCoWk/F6HzLNngLnOLzUF2FJRNro3hKf2fHpM0dqXjfGRBZNo3qWg6tDJynJ6+EWb7nu6hyJnMwXoF4JCtaYgiEY0xn/LcM4doNR3795Nr3vd65RCR4dydpQS+htAFsVikZ555hklIAZYC7AKmqFRcep8AEsCHd9XXXWVIg0QEfpAdOe0/hZw4MAB+ta3vkUHDx5UxAELB9c7ERzuPR/72Meu4+P+1GlJwv7TP/3T9NQgi7h0eJv1/Od+R2ke6HlWDqj8Y3OZcW3ElgL/TEZF8kW2GoTHqp+Vwvh8ieReNkHUEbuR6cl2KGTo+0KfQ5y3adPF5xJtHOCPs5UASwHaE5uxaGKATNicRfslAX5lpcYY6YEd0mN7oOatlqZMo3vtiXq0cJ6IyW5Ex35EXlCgMbmBfvVMkYaq/RTb/Zy+aH7itK0t164x1Ycbrk9pss0OULznn3++6nNArR79CZoctFKHsj906BD95Cc/oTvvvFMpbCh1kEOrCgDemxUQAWRsbExZH7AQQDAgjP7+ftWcheu4Vz8P/6CJCvfCaoEFg3s6FDZbTgc3b978AMcZ5kTMb8IuEjo2deYVMrasypH1Qo1JRbOSpEBEFNnZ9v8k6lDYsMaS5HuwpEYroOCBGDBMFqSA1V1hHLguF968RWsv2ka0ZXUydDXy2SLhmhUmyNXIYZZAUJZkFp5bYMiyH9t08rSkUyxqHaYFqPXPFbZs2UKvfe1rE3Jg5ZslBwiajTAE9Wtf+xo99NBDyg01fIhW5jMBvoEZ1yCHu+++m775zW8q8sEGWkDjO9Hs9frXv15ZD2GmebXTUK1W+7FfRPpzycIQRDPIyBFjz+9MTln5cyFS6yCh9s+io02gUxp5HJYDK3wlUyrh8SgH6QzJEq29YAuJDcuZENgUQbMSE5NVYMUEstCWA6SDFFVnIrHuYtFN+w4W2ZLo4wzgqD6cTsHLX/5y1S+QbRLS5AAr94knnlDkgFo8SAGT2nRN/kwJAnMjADyPpqqvfOUrai6EdgPgH92cdMUVVygBsWjgvsZmrHbH4ODguWw9XcZ+jzl+l6QuXZKBmjXiwA1GntqtJsXFXHjYCWPgfXKTWbRoQuJrXOaoYOfYlWtfTBRxwGQSo9kpKZDqPi4fEVfd4zikkAsITPmQX4x5DqPCo3OuuYxEbZ7DWNrngGc9Ir/ERwwbTAXvPGsAZYFI5tivE3bOyhSAesrKZFADB0QXVaMcnR5xmPf72TGnKgL1wG8tCwsoUih2dC6jBg6lCoH75ZddrkYt6fuy7ftQ5A/+6kHVB4C8ib4JHNWcBn4X3nEmNXq8F1AExIK+B0yQw6glkAXc4BdA+ZUrXAD6RzBnAn1wnYpyubxyz549r0h/TpW9OhILn8PbGJyZVSLLyM/bxadego7JGE5Q9HUKIZkUB4l8zvRMDOgMtlmRJLVNvg/KrAnQIY0+By9v0TmXXURizTKK4gqF5SF+hEkAVoJuVqqdA6mbwTwCxJ+nodGYKr6ryEJZEOm1JE2bp+tCAcoWtX4oVhAFOqTR5r9u3Tp67eteq0Yv6fug+EESOMdQ09tuu01dm2/AX8ePH1d9HDiiPwJ+yE6ww8gnWDvd3d2KOEAkmmw6BZwOAxy+K3GudcdSQ2elyDxDp7CQQb5y4tmtDmfYJNktclk3JwOK0ihjZYGKfuj5RAFbGWpiHIYETh6lGK0kCw6tvegcEpuTPgcZ+hRgbSUM9tCkkMlu6BhXPHUmWbD2vlQMWgKLHIZRgU6crFDR58R10kX5OK1RGTij4jLH8Q9liqaZzZs304UXXkjXXnut6pDGDGkQBRQtBIDCRSc1avTf//73lbKeb+Db8COI68UXX1Qk4Qe+IoUscM+OHTvUWlA477QOaw6PimSO253VarWX/R4uRZLonBRZQEhveHneERY2CtJr/oMcICrCtHXAx8hnKwMWBOY+pOsdjY9gAnAOC8ShiAvAWFSh9bu2kLVhJZMDF6axES7Ekmt+uWRoq1IiqfB5UtRbQPvDYG7A1oIf9tKpYWz1mrrptDxTgphjoJMXpHDzzTfThz70IXrda1+nls7A3ATd8ZslCXS6P/zww6rjGNfnG1D0sHBACGhuev7551XnNQA/aYsGZABCu+SSS5S/cK3TLAigVCqtPXr06OU45zAsuQK55AI0a8jYiktHNjk511YTzFh5o65g8x+u+6tbmBK41pMUBvQvJH0M/JcrECHX2IJIku+HVK36bGGEXCt1qOJbFOa7krWVtq8gKkgKK2MkHCYXfIjfJdEeqz6WiiXUaBCsEaRFeQECS0ad4zgxGROrIyGsxUWG8JoJ/NjUnwgTC/h5OtKAFs6TIqYcFas9dPIkP6n6Hur9haSZgBbxPx7GmQF5CgoUzUM4124Yuvq+972P3vve99IrX/lK1aSkhpLa4zOnIXo0klbGqMU/+eSTSV5N3zffwHBZ/T2MbkLH+IkTJ2rhygKd1VhyHNdgSeDYCeD4VR4dGRnZYAji7IIQxb27qFxyolonH/oYxhUOrIoowqgMFDhEYdJHAXUwbmUm7j6/AqOfnIEe2rT7gmSzH/Q5lIa4xpT2OeDJuqPBYgB7aQwXLarG3Zw2TBBq1Fp6UafPPANNM6h5Q8FDmWJeAYatYkY0LAXdqQxkJ79lgWe1MsYkOMyMhtLW/RPziUYFj+YwkMMjjzyifmsi0IBf0bEOvzaSR7uDw4IqQ8/hw4cvyvxeUjAEoaE1O1sQYvipy4Jq1Sl0s6LgJNcUAAWRI0etjoqmJVgJ9TVItFUzmfAZOqxVB2chR3G3Tesuw9pKvWonuDDyk9qfWsaA35slBTycFf1+LY3Xp4C2JNrHomhfgOQHRyvks8VnObnactazQ5JvxmVyoJkFI91Q+4eVgBVYsZYSRh3BHRbCVE0xuA7FC8W8f/9+VZPHbz0cdSGhVihmQsASG1jnSRMI/AO4jqtmYuOexfDfXICtiC2lUmkVxzv6IeYi07QNllRgZgVd84lDRw49fkWutwdckdYIkoKNX6gjoEM6DkESrFJUftAC8JHdQDcBn2K00urztjI5LKMgGk0sB35Jviud56CU9vQViMHs0KyOp5UVhrkOlSLyYq7B28lSEToHqLRZAIIFCcA/GAKKzme00YdhqDqbQQ5TQQ9txVBrzHXALGdYHVDAsEwaa/gLAVgG6CBHZzkqRlmAhPUoLL08RycB8c3EtprJbyN+c9otfATPI8xaTDUkCSv90WXhD1//qFvdt0UGgYwDZgN1AaOWHL5uUehLCtiCgBWh+gUUYaCWFpNrO1T1Agq5UJS5PJ/zisuIVrFp74QUVkpko/anSQG1ejXPYVzxTCjAtTaOBBOu6wpLg/JqZS1MXJtpZph+fkm+3+DbmaPRv7NV0g3v4xRIz4gq1g76xx9X6NDwWrLcAQpCpK0kx7XJjzlNOa0cwSZgszic4K9W/mwd/1DiIIENGzYoywFrGwHaYsD17DksA2zzCSKAoHMYtXCQDM6hvHCOeyGLBRAE/IqmMsyiBklkZ3jDn5jh/eyzz6o+C5AaFg5EGCAgOFgiIMp2IhE0KYEQBgYG9t14443/x3nnnfdjjmcHlkR6S8fDEEQNIAgho7G9O6JbbrzLqR5YL0PWDrGsbecMgohLgmTIJBFgYhGak7Ccd0oQfB/arQPO+2HeVpaDs30FBbLCJbrK98YJQaiX4aWaIPRvPvD76mAIIj1J0SJc04Yeppx6LGTFhVoswjUYbKav/ixHB0fXk7AKapY8PgeCqJJHMd/rqLkRTeJwgr9a+bN1/EOJY++EN73pTXTJxZc07WOAMoWy3bNnD913331KmWJdIyhSAAQCRQqgP0O36yPfLEZZR5jgB/gbGwi9853vrC0eCP/o/AzSwHLj6pzDh9VkYXGg7wJkoYmunaAJgkmreMMNN/z+S17ykr9nv7sc3vEZih2O2WmLJQXOqND05eObLVnNITMiw8IqUAWLFTWGsoYeZ2RM/uS8bPM/RCCaIdA8geW8xzwmjlye1l9xPjm71ivLAeQQhwEXDP4GFEmjMpmt0jM4M3C8Y684i3UolFK5VOVfBU7aHLtbarTaOHS6zU9aIb+hpvyyl71MbQeqSauxSWZoaIi+8Y1vqOUy9AqsUJ5QwhBYIDiCKEAQWgGrPLwIUOWI4xZHWDsgMoStUdmDMGAdQNChjuVCEBfvf//7leWBznptPbUTQBIc/72jo6MbUqclBUMQGaAIyZEXz4uCYletQKnaIhdW1ORZMHIJI5hU/sY1FqzPhMvoc4i6LFp/0Q6i1f1EXpFiNCsxyeRzrIX4vqQNXCuaqZSNSZ45RZqWCikpY+kHGdtMBl00VgUp5Pg+R9UVNJLTJK3nE5g09opXvEIpeeQ/KHe96B2IAquuYp2jX/3qV6rJBdehaBsFo5X0yqyLRQwaIAcNnKMJDP5Wqx/DDZYDC/yt/YojyAD3oX8CO+F95CMfUf0x7Qb2q/J0sVhciyP7O2Kn8czT4TAaCECCMgOoytbwo5dRUOpWGZvLKJRFzAokjiwKfMmWQLIiK/Z6wLFY9qlcZfOXo7IYBbTt6guJNvURoT8x9Mnil3JWZ03E+QgrtPKdaGpKhBNAXYclkgjclLAyAplk50Co/o5GQNE1sUCS5ycK8vNspBHKj5C6cCVhg4wToZYG4JUTX1tzzo7AatVsdqbA+wo9vRRy2ob2Chqu5GloGOZhskAfKgUx34OvWjHXxjkvoMhMDOtEfyE/NJNGoLYfhiH19fXR1VdfXeuI1rXlJFMSHTh4gL74xS+qCW+4R9fKYSVkBcD7IO0AkBXyDSwD+Bn+gr9hMaDZCUeIJgRA951o4HlMBHzHO96hJgnq4bp4z2KC/ZV4mDE2NraWraPlHAZ4qube6TAEAWSS0xp57gKoaVbbMdJfrS3GpBBjPkMElcVRBkXLyiNiFSZRw3NYweQs2qH2kGZykFWiMrZqxMOZTAwFO8dKzmAGUHGv4z89gvgwy50KVGILAuSgnGESMtIDI0n3ZqOgZgMoTShGNKlceAHnnwbgGuYxfOc731HHTkO2WQhWDywIWA+qWQxte02gyU5XShAHeA+sole/+tWq6UmT4WKD/aZySKlUWl1egvtUG4LIQAaVLhmU+pNfCQnAcgiZHEIMa/WQWZk+MkrCLrCFUbBp/cXbiTZjm1B2jKpcK+Wa6HTyMCudOjGYf9SIgoWZX7X3c1pjJE0WSkFlKw9zTA4AatRoX8eObKhJp/qmBijS235ym2pegn86DdnwgCAw3PXosaOK7I4dP6bChQ5pXAMQRpBBlliywOJ+sCJe+tKXKnJtFzDx9aMvAucchvpE7GAYjZSCVb+U3tAqtm/zsFzVgArJNUsmB5CEIgp2R9OS2luaEVkxDYdFWnfeFqL1A0wOfHNlkEtFSA6Txvh+Dhr825DA4qLOimCkNVSkDZZGUU6cAbCGURZzbTlo4NtYaqJZ+zqUJkYrPfrYo0px6uanTgOa0TTuuece1cn+5S9/WW0uhM52yFe/+lX6+te/rpblQEc8APJsJEzECZqYsBIsFivMovHehQSTQw9LN84X0x9zDaOtAGZ8hpSlw1viYKQPBIFKQDrKVTUzxTjno89/AqYTC0Mf2UrYec3lZG1fzVUbJhG/yFYD34Sd5zBGMqgmCqmxWWkyklgylgTCzKLDUxN2zsoUQFHLyuyRpkctXSzyqugbSvyH4cvAdCemTQV+a500AjViTBLLdtJq4PuPPPyIUoo470QLQjehQRCOI0eOqDkbsBywThTk6aefVh3vWNQP5PHd735XbTiENGiEtizWrFmjmpr0DHP9ncUCh60XJIFzY0EsUciRF3ZF1eIy1bTElRdFCmxJ4AiSQB8EMmFsCwocQZuvuDhZW4mqFFaGWeGgY5AFR3UOZZMoHIM2gLIKsqKBjmfUcpPikJTvhSsaWGoCiq9RwWGOw779+xR5gCAwDLbTgTBkBQoeJKl/YzmOBx98UPW5/OLeX9SG+YIEAE2UcEe8YeQX4k33WSwWmKAKLJ2fQA0wBJFhezn07MWWV+xPogUFFiMtMAyPiYJrljjm3RxZOYdWXnIu0ZY1qhkpDlGD8chyOIMqckgVUM1yyCqjFLpGPSXSd9XEYHZI41GnTU0pTzc9EiDXzEU9EUoReztkoRUdatcjIyNK+YEkikW2UDscun+hUaDkISAAkMbg4CDdcsstdP8D96v4gLsG7sMcJcQd+m7Q5ISRT4tMEDanUfNe9w7G9EvEUgUKeVrQg6G9OxAlsXQirlEKK3ZVwQyjMFnCm2ugo0GZVp+/nSjdz4HKo4QF+vJ5zsAu548aKQAZRWTQXsCQ1QZCUHWFJiQxV2TQDFByaKPPNjHpI2YQQ/FhiCiOWSXZqUA4sxKmQ3LRRAQBEH7ECUY83XrrrWo3vGzcaDIBdp67s0awIJrFAPuFvSUdDo8hiKUJTuDIy+dk0I0owVIaQUVSteSTCEgtDSBY+VeckLa87GKiTcvYkTNzaZhv5yOGt6A3u+pxCeA8grGRyNAQZGQlOE8yeT2QBE2SAcTSFuQCP0wiLf2ZhgvleDrSgBbOswT7RxEDJsMlE+JACFDSugljMqhkTUWj8bdGi1SdAEwEy8EqTWvRukkFgJ8w8xjksIjKT/kDShzLgMCawXlWycNvUOhaaU8G3JMVPJsVACQA0STxs5/9TC0nouMG13STEkZ+rV+/Xj0Lv0zHD/MB/rbD/jEEsTTBBFE9uSaoDPVhfSXV7xBwjQ6637ao7JWJ+vK0/dLzidb28f2N8xwaFaSO1vRorIg2AqeJIgaMQYaMAwpnoQGrAEoO39YKD0oOyk7POgayCnQhge9DGWNfhze84Q104403qn0p1q5dq/yDWj8IA8B9cw3EgV62HHHTDNu3b1dzJBYTHE8o5AufgeYZhiBSxGOHN8dedXkUoIM6Emo5b874gQwpt7yHlm1eQ/mt67hE883TmueQRi2aLGbQtj0BuoauxWBuoZaymHm84omFSI1sjRiksdCA9QDFD3/A0sKCe9jVDmRxzTXXKOWMmj76SjRRzCXQgY2Oa2xd2gyIE4wC05bNYoCJXTBZRhwPi+OBeYQhiLSTWhQP7ohLw6sjtRkQmxSc1JgcNxJUaMW2ddSzfQPJuJJYDmaew5ICl+70bOGB5iM0nUABQ3QzCmrnekkJ1I6hqHUb/UIC/kAtHkf0hQCwejBv44YbblDy67/+6+r3fFgQUPqIF4zoAlE0Ate05Ye4XCxw/ITsl4Vn8HnG2a3NMiOYglNPn+94o8s9X8TVqkfYCEg6Fp1/9RWU37aeqCAoiGE1cB6YzTyHjgHChHWGOHiTyJTQFpSWmQJlPytzCNUlxEpP2MmcB9SEa+4NQGyM55ak4JxBaCYAClAvcw1km5jQP4EaNMgBCnoxLAjECYhBN4E1YsuWLfRrv/Zr9O53v5ve9a53KQsD/tZNT9lnmr0DYZ1MoPQh6LD//ve/r+ZKYAVbXMO7cMT3cEQaNvPjQoDjyec0WjyGmifMRR7vbHDGAsLRo+u6CtioXkSRsEWVyWHT5ZcRrV1OcVQlvzjC94IMmBjMPIfOh9YjqdKFgslhMMIC6xc0zTSzDOAfbBika/AgB01g7QQob/h15cqVdNlll6m9s2+++WZ63etep3bFg7+htBURcjhnSnKwohAHY2Nj9Pjjj9Ntt92mFi38wQ9+oKwKAO/GPfNhwUwX/O0yE2k5/blkYAiCVUUcVgsi8PrGRk4S9nggy6E1F+0i2rya7WnOdFGo5jrkkP+mO8/BoE3RkOVZwWFipGWNb5oPhZc9jmPuiwvWf0InbGPtGt/esWOHWoZD/25HgsBs56zfYW2cc845aue4D3zgA6pTG/tbYLVaWENQ5DNpKsMoLpCKHuILawr7W9955530z//8z2rmNTYVwhyRxbCwNJjIiuxHTRCLY8bMAwxBcJ0xLg+uCYrDK13OwCPemNh4/lZysbaS7VNUwrowMeXR54ANfwyWBlKSV8pKRlwQAq4LpKSvKwB1SIvKHDcfQmFiCW8QACSr5LoKXaoWrudKtCPQJIYwaDLVFgXcsBwG1ky66aab1MY/6KcYGBiYEUkg7LAMcD+W6kD86LhCvN111130ox/9qI5cFwNMDkUmx/rVHpcAzm6CSPV9XDy2MfaK646MVGjTVTuFvZ3Jocun0BsikZMUOxFJthykTNfswfAlrBOD5zEKBqLnOaCgqMKCAt2kUCMf1wkrhIaF4QC1Q10zSWtrZyqNqHmbFWK9wA3QylJLA3Q4GqCdZ72fg/bIuIfODFk/wh/CV4ItXzHR0Y1LNFCQ1N+VS1ZtzShqbAilkJKDwLalaZ8KztXvBqh9JFR4G6Ue6HjFukPonEb6QHnqdILyxQZCy5YtU4qxWfotBpr5A24QTWT6N4BmIlhD6Kf47d/+bTUCCsubo/Mdih9NRLq/AhYICAEEkO3DwHu1FaHjCPeCQHTcwH2xwNbRMPtF9aKz39sjoeYAixej7YC0kzoaO7KtNHR009qtO8hd3meRG1DECkNabEFgphwKNhQcMmuqGAw6HIokkkleRCFTeZV6CuB6EIduRqyHJtO5BJQhVi/F0tfNRuHoRemgIBezCaUZtPKeCdChfN1116kd4rD39nnnnac2A0I8gBDQpKQnB8Kt3cFxoCKht7f3OMtJnBuCWGLwTu/btWn71v7ujZtQpaSgWuQaXZUcOybHiskWESsGrlWjpp8qlhpRICssmexwFiFNP0yEhAVnc1r39OY4bX02DqGIOb1Rzue5MgDFj72ascw1NtCBvkHtWStf1JIx32D37t0doTCngrYC0CeBdZQ+/OEPq45tjH7SzWkAyHAxLYLpIEsETHxHOS199jcSaclohPZOgflGmsDda8573hO5QW9sMFeuFmO/GsQ22VLYnJnTvXMNlggaLQOljCM+hlToYoMSzU6YKZ9tDkpJAvZmYnPOHUAGqC1jhM7Q8BBhj+wscA1NNKhtn3/++alrZ0OTH8KOTm6EC0NkP/rRj6od4/BbD+9td3AYkCNiWBD4zWGb4xyyuLD/9E//ND09G6HSUlgD2562Bnb8ygvKUXHw2R29XU6XH0Sxq0Y0uSoT4E6h0h41znnIA42vTH+DwtS3U5lr1N45wSqGomI3pRyn4YMWl7JPTvL0AoPDpqwDmRiAqLVbTBT55fTMYaKxSoHdsR8IX2QFZtkORVBqbGlAoTUNT0P8yfQ3q0D1t8kTCrAg0A4PP4RhSOdfcL5SnBDUorXVAJLAaCA0v2A3NhzxbJIzx6GfnY5o6DZ8FQ8ZdwB+Qk0e91x88cWqOQhofId6nitTuB9+xu9mFoB+Tj+r78Fv9ElgZjaW8cb6SviNcIIoILgH70W4AfhJv0cjGxZI4/W5BN7NfhGcNicvv/zyr6xZs+YpdrbYvaEW0rk4ywkiAWdXafVtfNFd/dLb3f6dT4+NDhV6aGhXGAaWjNV2/wlRqJN6RTBnaMzH6e/5y94Jau+fQBD69zR90OK2+fb/zJGWXUUQ8B8rHdVsiNV6++iFYw6dLkIhYnROXsUCCCJmZcMap0YQE9CSICaPASgZKDUAHdZYNgJzCtBprRUhoBUeSEIrTvRd6H4L3AvBPTNF9plmChVu+CZWTUWfCPwLxZ69V72D/8M9Swz6HhybvbsRGKmE5b5BELt27VKd2Rj5hHBiSDCO+Ba+0Sy8jb+n880zBd7NhCg4vfbv3r37y8uXLz+YOE8oTB0LQxAJWEvEjnDyvtO/88n8qqt/Htgbnxk8tndjVDqxkZWFdKTD2YELhcXmw3ykf2M+Tn/PX/ZOUHv/hDDp39P0QYvb5tv/rQGlizA0CDyk+5Dwg8+VMrdi8qmPDg730LEh1JwtctwCK0NYEG6yBalSTHgM70kksSpTtwymSxAAlFqqbJR1gFo0lCRqzVmSUEFgQFFjEh3a7PWzIAwczwRZpdr4Dnwf/oJfMJsZe1Q899xzdODAASVQ2pjIh/tAIoB+B96L53BsJJRW0PfhGRARLBaMgDr33HMVWcDagju+2QzZsABnGifTAd7N4RZMms9cccUVX+TwY0w8Ozdkhg4GFjJPTw04eyFnggXUIO1gZO+55YO33Fjd80//0hYj6wtdDvUO5DnHsbLIWpHZPHim0dmQj1vonQkFYLaovX+CVZz+Ttvfp0Sj/9Njg/MCoiE8jeFU4WIlpH9bgkrxRrrn2RX0y6ciKlZ6KNe1mjyflaSbpzjkmisrJ9YHyf0p9BBXqTq2x6HfiyVbpgsoPygdrJaKNY6wgioUJtIcooeEorkJv3EOOX78uJqRDaWJ43Sh81I2T2Fp7SzwTXQs4x5MRtM1d3Se4xx9BbiO3zjC+oFSR60fI5Zwrq9jWfNWK7K2gl6bCk2A+B78AKJ67LHH6Nlnn1XLbmShrTENPDNfABGAIC688MKv3Xzzze/nb2F5BeWublgCMATRDDIt9RjOImM7GH7hgtKef/x4eOqH76Ow2NPbk3PsHJGbx3wINnMFF2J0ZrNSYHaBVoDuQcnjP3pce/rKWeadmadXfYFpxOIp8LnG5OFsCo5L7PEAQDF78Wo6OraLvnXbQTrtrySPBvhCnlwnTyIIEgXuoEkqeWY+AIUPhYqhrZiNjFo5/IZ012mPvIbRV9p9KuC+yQClinvQxPVXf/VXdPLkSTWaCM05ULBa9N7YuokJR/gX0P5A/wOexW/cAwKBgCxgFcEKAPEtX75cHXX4tGDvlSyJ6PdmwwDSqFQryj8gikcffVRZXrgXbuo97A98X/tvvoA4uO666/7Lm970pj/m/OEyYSyp9ZgMQUwKqIJEo8s4dLyhB1869ORf/ZEYfvjVnNd7unvyXHJcKWz0S/FNIIY4kyEVaehMbghifjF7gvCjlTRc2kK33zdIz55eRmWxinneoRwIwueaLBNE5M4vQUDhoLaNIzqFQRKohWcVJK5pkmgG5JHs/UDj7yzwPlyfjCBwPZv39G+QJqCvgUBwPxS19geO2XMob21xwNLARED0veCI39iYCKSCe+EPPId3wnLBEdDvhB/xLcyqfuihh+jgwYOq2QtugL5/rsF+4s9LwcR37G1ve9u/vOSSS77K8ejw9+aXkRYYhiCmBU0UUsg4tioHb32nf+Af/5VVef5S2xHdFtcq3Rybmy4XAsvmUoBnuOAgbvnJJI4TBYbMPhvMPL3OVoJoHm5Ye4DiaY7LLEGEUR8Vw/X0q2eI7nrSpdDZzFYFK2zHVQQRxxFJrt1GmeakmTQhTQdQgspSYf+gyQid0tdee63qc9C1YkCTBJpemqExn02W7yYjCLhD8N2scoZbNi/qc7gjDFmCgAB4Ht/SaJWX8TwsDKxDhX4WEMaGDRtU85Xu59DAO9DPAf/Csjhw8ADde++99OSTTyp37ee5BoeJPy0F++vhD3zgAzex317g30tqBBNgOqmnBV24kNkt6Q7sfNJd94avuLJQ8UZOr/CLJ9ZaMrTQMmU5Bb4LpZYzZq2qqbRRcsrQBWZh0LwQaiykT+YXjeFsEe407mspk54gTbBjpLAcqvguvXCACcFZThEm0bGbiJIaKzaVzFoQnCPSs7mBbvMHUMuGskZncBiGqlaN9Zmg9KbKQ43XJ7sf4cJ1KPUHHnhAbe8JMtLKHNcguA/+U+SEuEgF17QbruuaPsKBc1yHO0Q/o9+LMCJcIAEQAEgB1gQ64jGSCee6PwMkgPcBeAfmjKimNv4HsiyWimrVVxAdBJbEfBEEQ0Uo+/HBV7ziFX/F4bf5W0uKHABjQZwRtEVBFI4e2Bbu+fonint//Oa8PH5efnlv5PYW2KTgykTkcfxiWF7AtyPvoKaWZHAUjuZoyNANycNFMD2bCtPLq63VRorGGvJMK0iN2WvKD54pGv3Vyp+Z8GTzPpQca38/KtDJ6gb60g8rNBpupdDKs6LLk/RZIbEFEbt8XyYMU1kQjes0NXZmN6IxX+jyCcWol92A8oQyRWc1oJWl3lcC78Bw3CxaWRpQoKopie8fHhmmz372s3TkyBGluPFNKHUAhKGB7+Eb+qiBc5AMiAGEBuDdUOyo+eMIRQ9/9/X2UaGroJqV4AZiwBG/s9Dvh3UQhEFCPuxX3QeD92MmOjqsX3jhBTXCaqHAceKxdffJ66+//o+ZIJZc8xJgCOJMoWZMsnYQVsRxKMJTj76s+vzX/kV18Be/ns+Nrc93FULkZcuNhWWHiVEB5Qr9MGmcNyichlsNQbRCo79a+TMTnmw6QBGx5g/5sSF/A33v3jztPTlAIfWS7fSRDJImpoUkiGZlE4oXm/Sgdo0OXzTB6E5gKOAzgVb0sBw++clPqvkVUMQQEAVq4lDwIAt8X1sW+ohnQTS4Hx3RWEYDfgER6P4E+A/XdDNRbw/itX5EU7PwggBAOPgGSEITAyyEw4cP0549e2jv3r1qCXAM9cU3FgocpsPveMc7fvfCCy/8Dvt9yTUvAYYgZgkpY1b9IAo7lGGl2z/xy9eW9n3rI/HgPb+ey4cFt9uNuBxYTo4NYZdzNiuaLBrjX1sYNTQkjyGIVmj0Vyt/TkIQ/DuKQxoL19H9L66ne57wKYjXcOItY4KQTB4c94ogxt+9EAShFTGUMK6jlg7RnbpQwDiH4oWS1vdmkX1vFlD4+A6IoFwq0xNPPlGb14Dv6m/q7+I3FL8mJNT88X0oZhzRoY7zmtWQyyvrRb8DwHvRJIS5Jbo5LYvGMgGSgBtGOJ06fUqRwjPPPKOGu6IJTpMZ0PjsfAL9D7/5m795fU9Pz2n+LgdvliNQ2hCGIOYKMrIlIZM4YeQNrvWO3fM6b+8/fYJKT1zt5GyZ73bIzTkYFculZFxJcFGB1qjpTV2IamhIHkMQrdDor1b+nIQgYCFEPlVpPT0/tJm+f+cJKkXbiZzVFKcWBIa5LhZBAFCE6HyF8sW9qN3jPq3o9TON+WhCvkoBpY9rUPqoga9du7bWTKT7DXRfAvZzwDpJUP7aSgAp4JoenopaPo5ZUgPwG+9qbKrSyBJa1l37G/0wTz/9tGpGwpBW9DXgPhCbvkc3hy0E+Jvhy172sv/99re//XfZH0vSegAMQcwpJMcnLAoLNnscjR3c7h3+6dvKz/7Dv7HEiY25bsvq7e8iNjVYEXEtDYXQwUbwltrqGtB1kFpdpCHfoWGrHvp6i/zZ8DwWDulstAjndKHze6tsH4UUWMvpaHkN/fJpSQ/tHSDKb6PRsUHKO6wonfr4m2uCWGhkrQRA6wP8zp5DEX/wgx9Uo6m0O9xmC/Sd6KYmTS763A98RQhYyBAEgaavxYYmOraSjnN8vH/nzp23c3xwFC096wEwBDE/4NKGeE0yTTD6/PnVvd/8Tf/Qt37Ttivd3b22a7G94Szro7CSzKtJ1EhsCGJKzFLBTkEQMmbyFj00HAzQ4/vydPtjfVQWW1gxRKqWHfrJ+HqNpUwQAH5nCQJLXuh78Nxs9Ufjd2C9YDY4lj/HUFXMEkeTF/yJe+aClGYDkAOsphUrVtz3e7/3e69mi6j9l5ydBTpdW7QrknKTzsh2+3c+07v73/373qs/ez0NXPu9kSE5FlbdqHh4jOwgJ52Qa01o3pDYuQ5PGCwOmKAxOd4KqD/n0foVLg30CVbyJcoJm2wkZ8cTbHtBEwyajLDOE7YP/fSnP0233XYb7d+/XzWhgTjQzIWZ14sN+IPJqrp79+7vLnVyAExunydwpuYqka4uwgS14vyqSx5Y9tL/+e7uy/5/Hyrb235RGpVlEWNiHWpiLUxUo5AWDkzOUo02C8nNhbSqP6KNK4gKNEZW7JNfqZ5VBUbX7huhJui1uDZTYDTSI488Ql//+tfpc5/7HN1+++1qfSXdN4L+DVgN6GOBFbGYQJlOR1WNXHjhhd9NnZc0TBPTggM2gpBRUO6u7v3K74RHfvReb+zxyweW5+0gjmR3bz9XZNFpHaERmG9vGPVkN6aXLjTTKzxzU6wXE7NUEqzcWkLEFCN++R6LbPLlOnr00Fr68T2DnBrnUCiWUUBoghr3w1JuYoLgOo66iQkrq7bqUAb0ewD9btwDBY/aN3DixAk1dwHLYzz44IPKekAHuW4+yhJB9luLDQ4bCEIyOXzvwx/+8HswDyK9tGRhZlIvOFCApLBsN8ytvPxee/U1P4ZbpTi0TPjDa1ws6yAJVTR1L+fJep0+obzoAjqJ4sug/mWdiOmFsyUme5zjXFkQrNBYNbI45OQHWKGV6fSIzSTRxdcxVi29n8EplJ41R2PyIXHbCVDemgyy0G76OmryWGUWw1g1GslBA+5qlnNGueN5jD7C4noghbvuukv1Mej+BU0kje9s9Ndigf2hPMbHylve8pY/Wbdu3ZPqwhKHIYhFATI9i4xtO7dsOL/m1261+y5+kAJb+qUj633v9DKUFSgXlA+U1eQ5xjQJQs2cbVJ+x1/U7kAtEgFolDkAIqGZMKRwOL6VBcduggpOF/mBQ/tPCvKom+MVq/cm9wIqaWBFsP6AjzOXFJYaQWCiG9CoyAHtBmWvyQFEcehwspDeL37xC0UMmOCmLQY9XFfdm1orWTT+Xixof5xzzjl3vvrVr/4kW0MVDi87t4f/5gumiWmRgWGx0DACE+0iP1c9dtf1lQPf+qA4fc9bc67s7h7oi0iGfA8XHitKGSPOKKmkIApsaAN39YtPmSDQVtyIzsnO89QUM1l+R18QE4CKa/L5t0NVv5sGq5voO/ewohtZTpHdx9QxPpJGdVwzInXgmrD6NY6l1sSE7UAn0xn6PehHwOxmLIFx9OhR1eGsRwA1Au/LNitlkbVCFgscJvailI7jBO95z3s+tHv37q+ml5Y8DEG0CaSMsBUNl0omCn9kRfXwPW/wX/jGx4Kh+1/d2+/KfI8tyeWsKny+jQsU/qqarotZF3iSBSSROU+RJQpcak/MkeKcTX5WloCL6GWkA1Rsl0aj9fTwC8voF49VqBhtUMtv6OU2xgki8T/SYjIjYSkQBCbqAbrPANBLYqBfAXMXMKkNTUogCjwPCwTXw7B+uaIO0T9INIvDfhsTxIf7+vqO8G9EWEd4fjYwBNFOYJMVKgRnGAEVlY5t9g///C3ec3/3r/P2kXOJVVNXXxdrJU4z9PdhWY44mVhEAp3ZnI+xSBuyriGImUNZEKoPiL3DiozjMGJ/VWg5nSxtplvvOklHxjZRldYSbDrc7ypv830JT5wVBJG9B0A/Aiay3XfffcpaGBwcVOs64Rn9nkZLQD/b7vqH/clelNg5Lnr3u9/9G5dffvk/8c8lO3O6EfWpZrC4QEdYut0pmp7snnUHu3bd9Df9137ujfGm3/rPsbVu0C/JKC5x3qzwTUpLIZ+yMrO4VofFJJFvUebSAti5QLiayeyAmv9kAksghhJH1DLZ2pwkeeHT6r4ynbPZ5d9FdvfZeouVssdxHEu/OIEwoNRhRWD0EfZe+MIXvkBf/vKXVacziCLblITlOLC8Bp6D9aAJo1MAcuCDtX379ju3bdt2d+J69sAQRDuCrQfMm+CqP1dpOZF6N7/Yc8kn/sS9+m9fU+5//VfL5cKIN0YyLDMhKIODoY4Tk7NZP4RBcyTDV9NhrFqH2RY5IiDyT9COzV3kikEmiRG+jGYW3JcILAdLcm17iUc3LAFYCbfccgt96lOfou985zv01FNPqWUw0MwEYoBOBUmgSUkTCpqYQBSdBFgPLIL9XYblsHz58n0cHpudsrWCJQ3TxNTuQLOTUlaJ6oFlUT101+vjF7/wh9Hok5f39ob9Iu/EfuyJfG9OxFGydIdO1wmm/RzUwucHjf5q5c8p6jRT5GdYCc2g5zZYqnZrkaXGDmAkE7+PkyCKXSrTBnp0Xx/d/XiFBqsDRM5K5gZOHjRNpe+diiD0fe0CKPDJmphwDTV/HF/+8pcry+GXv/yleg4kAMWPazgCjfpEv3eusJD6iv2OpiVx4YUXfunGG2/8va6uriH+/lnTvAQYgug8oMTJOPIKlX1f+2hpz5d/w6oeuKivz+2StoxzXejJRksV34f+iDjZxUvDEER60gAQhOo/gGLUVpmyvtgf/M6Y4zKUK+hkeS3d/cgoPXWonypyNTlWt7omRdL5mjzb2o+dRhD4DctAu8EqwG9YA7imn9No1CeN12eLxvfPF9jf/Ckp+vr69t58882/fe65597GcbUkNwWaDGYeRIdCWHacW3HpA7n11/2ALDf0KidXBuWjq22u/HKxlSj0XK1jDRDVlVAu8smJLme1q1DIcNQytwV7amgPaTT+1pidv1opaFaHHHH8V1kOcNHxYfEZascgDqKevKSclafhkTyNjdpkO9gjmWNV9f9EfE9yb0ssdLROAa3kGxW5/o18hE5o9CXgHNYEOp/xnMpjKVop7rkmiAUEe12EbDV99uqrr/4smpY4vPXLGpwFaF3VMWhzwMyVltO15njfhX/wf/Ve/F8/lFv33r+uessOlcueFVRYu3kskcslF8mcJrVaa4gF8yaUJM4GLZDRb0L4FPvHadtGQVvWxuTKUxyr6XDYJQq99wTIAMoefQx6mCusDxBDK3LoVHA4VYA2b958/8te9rLPZN3ONhgLoqOhOtFQfbPtrrVH2Zr4odVz7tNh5Mjyked3iSjO+YGMc/keIRyuDkVJW7JQQ2KR33Wehxbkc9W0qjViRjMuCBrLX4vy2MJ5ukCoWkk92CWt/eKQCPOt5ZNwXVq+ei0dOTlEw16BgriLClzD9qs+OZiJrf6pN0ywWLS7luTP4kHlnxbANX1dkwD6HbKWw1ICCC8lPdHb2zv4mte85v/dsWPHHRxmNC2dddYDYPoglgL0/AlVyxFxHJZ7/MM/e2tl/7c/Eo/c/wYrb0d9/d3CdklEYUlgJC1m5ak2k8ZGeeW+GAoA5JRF4+8UrdqIFgDop4B4cYEiez09e6CH7nhI0KmRFeTm+yiKbdUglUWrPg+NRQzOlAA5nG36AWF2HMffvXv3F975znf+LhNDyG4tMuPShyGIpYQaUSS1nbh6an3p0E/fNvjM331iRf70RVJGsevEFjaxc7G/vVJOId+IPIAhiEwMcNOyoOgEguAaNP8LI0F2boCq8Wb62SMxPf6iTUV/LVnuAEUBlgQf93snE8TZiDAM5c6dO++9+eab3zswMHAgdT5rYZqYlhLQHAArQq/v5PaM5ldc8Ejvpmt/6AfOSDy45wIReb3QSQ62dsS49Bhcwi7oXIXlAK7AccGbXBu/1+r7i6dR8WXfT0bwWDJU0dTfv4xOnh6hsTLHpdWdxuc4piSAxQuOQQZsJaicv3z58iM33HDD765fv/4x/FYXz2IYC2IpA0SRNDtJGQduOLJvp/fC3/5RcOJnb5bhieUrVvYR5VmxIQ+wJlNDPVWb8yQWNTq55wWtLAjWwlkscn6tzZdgQy2kAvl2Hx0bXUM/uNunE8MryMktJ8+XFDFR2JatlurIQmDLugyMBbH4SMkBxF9605ve9EeveMUrPqUuGBiCODsANZQUAhlHjj/4xK9VnviL/+R6T1ya75HLpc3qjonBtkORKMBkTkBTGIJQRxAExxJV2KIIxEZ65thauvuhEp0a7SPprEzIAdZEQ3wZgmhLxJZlyZe85CV/99a3vvVf5XK5MutF5o0FN6PbDoYgzlLIOHS9fd/5QOXw1z9O/oHzCqLS57is9nIxK7fWLefMJOlZc5y5vusQgkAPQxpIkGjkVcnOr6Si2ED3Ph7Qr55fRmPeKorZn8aC6AgggdRaSzfffPMH034HpIpRjAxDEGctEqsi8gZXFZ//wu/Gx297t/AO7BpY2e1idX5WfQLDXrkShdUkauBaVXrWHGeu7zqQIPAL+0eEFvlWNw2HG+ieh/P07AGbBosudfevIK8aqPvxHGA3jBAzBLF4wNBVTIDbuHHjQ+985zt/C0fWh2fVUhpTwRDEWQ0pZByxznLCYOiZS7wD3/qN+NRtN9rhyS0kwjjf5ZDd64gYawdGmCHMSJeU0KgZ4WqJiYmY86U9Fjm/Zi0otUmTAtZUdCigfiqV19BdDxfpsaMrqBKvZu8iBhymW0fFhJNu7GSwuNDksGrVqmeYHD6GneIMOUyEIYizHqzBuGDAVIDmCk7cf11p//ffI49/533dPXGv3ZOLY1aKXFNGk6ywsNQ1FrFLkRBEhhwaiGLpEUTy/aat0zJHQdWhIX8j/eRRm548YJHtrKFAdLMkTUtJz4XRQYsMJIC1fPnyPW9/+9t///zzz/8ByALkgEye3GIAGIIwUFA72gm1XF0ch5Uu//hdbxrb+5UP2sW73265rnRyObJciwq5SCRKv7mSqy10VyONpUUQzZkhA+bbkFbSoeHV9LMHR2nf0Cq1wZBk8kBTkyGHRYcih/7+/sNvfvOb/91ll132ZUMOrWEIwqAeMnIkWcwCQkbV06srh+/49fKLX/w94T/zEjvvxMtXFCy9/3VS1hoV3llMELGk0KuQ07OCil4/HS+tpm/ceoxKtIVCuYwiKjB/1FtYBguP3t7eE69//ev/5Oqrr/5M2qyERDWKsAkMQRg0AZqdMIfCjnAMy8c3VvZ95/2jL3z+41Z0YtOKlX0iX8B0bJukj63tsH5NyApQksuWRoK5IogGhZpp3lpQ1Drn0/CgL0JvxqTLEA5+yLHnkOd0s+Wwgk6PraL7HhmlPSd7yZerKCBX9VcYLA6WLVt2+Prrr/+/rrzyyi9gaGvqbJRgCxiCMJgEqn9CEHa3i0NXjh7aXnn+H/7N2JEf3pjPeSv6elx0TbCyjPgWzkeqhYp/K+viLCQI3APvqVttJoQevmU17T2Wp3uflvHek/kocla4sCQMFg6wEBiYJb3nLW95y7+5+OKLvw13uJlmpclhCMJgGmCSQNsKyILPqycfvbry9Kf/Uzj82Eu7c5XllsuWg+tK2+W7XFaPIAilJIFWBKHdmQCa5cGaQl5sgkj9KdJRXJMRBK4xYUqf7a5AiiB0yavYNGZduHfYffkv9hwP3V8+/Oy7IqtfaSx+oCFwBnOJlBhUPK9Zs+ZJdEjv2LHjp7jGzoYcpgFDEAZnBBnHlr//RzeVn/vH348qz12cy/t9bs6Whd48WxOZTYoaNvZPiuT4b6UjO4IgGvyDJa8xXQTX4X/8lxy6KKbQC8n3YhGKNUdp2SvutLd96H/0rr34/tLYyJqf3n7rf7zvgUd+KwxDLJeIFxiSmB+ohAMLYF+HG2644RObNm16QF0xmDYMQRjMCpE31lfZ+9X/o3rgWzdHo09f0t2bt918XuZ7ekVUHRVWgfUfmtxTkkAHd63eBoNkutAKOjtrL4sMCSVo/D0VUj2tR2HV3sdHPldLbKjRwDCR2JrAfWxFeOVhyhUKkmJXBkWPAj+0As8dtVddc6e9+d1/2735et2cocbYVyqVZXfddfe/uvvue37fq3orMB4f15hZGgLWyv+GTyYDxyc2NIrz+bwVRVH1ggsu+Mmb3vSmP1y7du1TfBlxbBTeDGAIwuDMkSwGyCciDkb3n+sd+NpvVQ784MY+e/hcYdlRrpAXoe0JciOh9rRnJQtyGCeIGeS9NiAIVvB8PafuUYZMxIfYw7n0y6HwK3Hk5S66a9mum77Ste2GLwm3dwxrX6EPB+TATyjPx2x9PfbY4zf95NZb/8OpU4OXwklYbH6oJjyNVv43BNEKHMeSSSF2HMdmgjh5zTXXfPblL3/5/+rr6zumCTq91WCaMARhMDsk/RJMFKomLIKTv/q18OAP31/Z972burvC5VafE5ETM0FIJePzJBhpcxHWLWpU8Fya07MU80YQ01G4/C68H34QttpVzfMiSYGQwhciqIYiKmx/omvbO/8xt+kt/2x1bzjAYWO7iakw3ZsjAwGCgOVw8OChl/z85z//d088/uS7UwsCRJISRSv/G4JoBKIsPcX+2WLr1q1PXHvttf/lkksu+RaThafjO73FYAYwBGEwR0C1mhUbK8Q4rPT4R++9rvzC1z9sVe59R3evZTkW16Kh9R01aTvpyFZ5j48WVn9KlvCQMXTqOAlMIIoswWQxHwSR/Vb6fmnnpPQ8KlcDCquRkOHq4+6md32usO3NX3UGznuM78AQYZtDwcreaukJXaMdGxtb98v77v/YXXff+S9ZuS3nSylJNDY5aRiCyEKTA0jVtu3gnHPO+cEb3/jG/3vTpk0PMTE4iGOIutlgxjAEYTB34EIqWTlyqVXKMa4Org5P/PK1xac+96/z1WevcnKutLtzQnLd2maiwLpOVneeKCizWgy5Zs7lOC3LojZqKEGNKKYiiFp2bqETWqjdBOm7a9/go+tSxIQQs8HgWg7FpSrXUn0qy+6yWP2Gr/TveP9n7IHzH7GcvKceTEkyfUFLJFYC9BsMith+4okn3n7bbbf9+yNHjrw0n8/HflC1+EhhUB8OU17rwRYCmpUol8sdf+UrX/nXV1999Wf7+/t1kxIiy0TYLGAIwmA+kE60SxRlWD68OTx06zvDPf/8B0F4YoOdE46bd7hws9ItsJ6UEcUYG5odoZQq6aw1AVjoIG6GOSEIgL+rvp1IGEbk5LsoDiIaGxyVVKaKu/7Ke2nHv/ivhZVX3Wc5vUV+APNFauGdCVJFFoMwhoaGtt1///0f/cUvfvFb5XJxbVd3FwV+vSVhyus4QABMotVdu3bdcs011/y3rVu3/hJNSYhTvoxxrCayZglDEAbzh8yOdjgPiwfOGXnun37PO/SjD+Rzlf5CAdMnYqVXLTTKWJhqwben5AA0EsT4fIQGMEFgnt5cE0S5HMkoDEXFE5XY3fhc347f+mT3ljd8Szg9TAwAhxHhU3JmADkw1CmaRQ4cOPDSO+64/d/v27fvdb4fduO6upFxtpdXKH3EBxOBv3bt2meYGP5y9+7dXy0UCmO4ztcU4aqbDWYNQxAGCwAouFSBMlFUBx9+iffC3/6hO/b4tVKOLrPd2MJEO8tWZCEiilQTU7Y/InkYfNNCw9cIQpOL1hENuqL2ePa+9Dx9Fl0ISmNLhw4fOhn0LT9vr7P69f+U2/nhv3IKywehoMa9cebE0Ai8F0d+ufR9v/vhhx967333/fL3T548eV6YzJsA1Pf0vWcDEB86vLAQent7j1500UXffvWrX/3J5cuX78MtfB2X1b3qxGBOYAjCYBGAfSikCA7d+o7Ss3//CW/sqZcs7871CDcit5cLuOVjBCkraCvpe+BjmBoOTBEJETSpJFqozNcIgqHuSQX9xbVr4/eBjPDb5n9SOjIOiAKvKvyKL0Ox+oC16rof9p7/G590+re+CHJjxpr44fkBFKIcHh7e/OCDD/7mI4888vbBwcFzubx2w93zPEIfBVscS4ooODx1St62baWj2F0ODAzs3759+71YZO+cc875OV9WcaRuNJgXGIIwWFREfrnb3/fFj3v7b3u3VX76qq5+zo92QLGNPbKFcCxbjWxFSzzqkM4kbUQ1CwJSI5B0gyOt1xUxjBMEJrthAVsZ2hKGS3FkRHhB18llm667VWx91/9217zszuTLi1szZaLY+tBDD33wiSeeeOupU6cuDMOwl2vTcRAEUKgqUrgst46cDgCIAQTB4VAWHA7QTytXrnx+x44dd1555ZX/yMef68vpYwbzCEMQBouHTI08GDu4VR78xse9oz9+i/D3XGjnc6FdEMJlgwHzzGI7UfQW+iBYuTerN9c3MQEpKdTIAkeQR/JLRkwKnk1h6MjAi60ocqpy+RU/Lmx881dzW9/65eSu2fcxzAZQhnyAQlSBGBoa2vLYY4/d/Pzzz//6nj17royiqDfRpUlBxo04ps+1PeD39FQRAwiCoUYgrV69+pmdO3f+5NJLL/06Ww53pfeY0UkLCEMQBosMVmR6BBArtWDw0Zd6h779IXH6jrfnraENdsHFfGWLrJB1P3a0m0LvtcrOmiT4U6iYKqIgN64MeiKqxFbYe8XPc1te/5XCtrd+2c4PDJOaAc33ncHIpHkCyio8jXH9EkTBJPHG/fv3v2zfvn2vOH369E6+zpfamyzgv/QU/sqmlmL2QqEwyGRw95YtW+5ja+GOzZs3P8iWUsjEoRoZ+XkVfpwbzD8MQRi0B2BNQHsLO4zDSnd46oFXFp/+p4/S6bve1tVjdYVMFN09ecuCJYH1nJrZEDUSgCh9w0f+AT2JTm+0WPghRaEgv8RV1VDaobvlGXfrjZ/r2vqmb4ieDfv4ASYsKCMmhjZURFxeLSh8dNbit+d5fceOHbvo4MGDL3322Wdfy2TxSrYqlvu+L/ke1XbP58J1XfW8PuId6mQBkFXoYciRbtvaHwIzn7u6usIVK1Y8wNbC7eecc859mOTW399/FDewP23oKB1eg4WFIQiD9sL/197d/KZtx3Ecx9g8iIeQEqI0aaNsSQ6LNKmteminqdqlh962HSbtn9hh/8+kqpqmnXftaacpqqppu6TdOoL6ELQkpKShGLAx7Pv9YdqU/bQdWimwvV+RZYOfIODvxz+wsSnOUrw0KHrNRb/+0yfth998nerXrrupgVOcc/Us7NFhREkZ1LOyT9Or3RnjgJAWwyCpx89KqDhOz+8mXr7oyqxLh6n1z29n1j+74xXf/92R9Zl1m2L26jOpqSXbrQaF1E1TOM1GfHJycr7RaHywu7v7ca1Wu1Gv16/IfYt6hJiEhm7reraxTvpG0VY6Lh58a+Nl25Ypj1cya6APvLuysrIjYbC9ubn5owz/Oj8//0TPhtbp4haDBmH8JRLOAgGB6aOFRf/k7am3Iv/Pix0JivDxd18l2juXZL/fS3tJz/VcPYN2NM/k9w1xCyIwLYah9PVcNDf0UuVjp3Lr29zmF3eShdVqMpXz9XrcMqMUtpncS9VteHzsv9mYtbj6vl9pt9uV/f39rWq1+tHe3t41CYwPZbqsjNfCrXvmpjWi84zJuHhoRAp0PDTyb+MnmJ+5kKIfyXRhqVR6tra2tr26urq9vLz8i7QS6sViseF5nl6W0ARK/Fx0B+DNFeFMEBCYZub9qQXD3PKfL0bPdy4FT374st+8d3PgBvmo284Mhr3sUH9359R1KGRfOUo6mcBLFzrR0A2i9IVH+Quffp9dvnHXKZ5/6rjpQKeSSTWIZr4YxYXePP/J4trv99NBEBRardaShMTVg4ODraOjo3XpNqSFsSKti4xMk5Linw7D0ASHzKZ93YMfLSQ2GRBS3PX65XpnJMOhtgDkdlgoFI7K5fLuwsJCtVKpPJIWws/al0D3NRBevaYiXt/4daYgTRECAjNAi9/rgpIYRO4gaM2FrWfvJV78dqXffHC5392/OAiOzyWGYcbx5o7dbPnQLW08TJa27nuljQduduFQQqEXL0GYgipOLfe/Rbdtqbl/Dz+9XzpXir3b6/UKzWZzTQOj0WhsSMtjqdPpzEt3Tq9dEYdHWjuZNakBIAW+J/1Aiv3LXC7XzGazxxIIh/oRkYTCHxIEtXw+35B1a8thHCCTzP9f608cDJhCBARmh+4lv20xeRfLmDEaCNo/60Ksj4MwmC0EBADA6h+/YQIA/H8REAAAKwICAGBFQAAArAgIAIAVAQEAsCIgAABWBAQAwIqAAABYERAAACsCAgBgRUAAAKwICACAFQEBALAiIAAAVgQEAMCKgAAAWBEQAAArAgIAYEVAAACsCAgAgBUBAQCwIiAAAFYEBADAioAAAFgREAAAKwICAGBFQAAArAgIAIAVAQEAsCIgAABWBAQAwIqAAABYJBJ/AQ8Rgxt144SzAAAAAElFTkSuQmCC;" parent="MVg5KTkQZKPQUCUnIw-0-36" vertex="1">
          <mxGeometry width="61.73" height="60" as="geometry" />
        </mxCell>
        <mxCell id="jSwNP9GdJg-Y1JOGv4ba-54" value="" style="group" parent="1" vertex="1" connectable="0">
          <mxGeometry x="390" y="200" width="190" height="60" as="geometry" />
        </mxCell>
        <mxCell id="MVg5KTkQZKPQUCUnIw-0-34" value="" style="group" vertex="1" connectable="0" parent="jSwNP9GdJg-Y1JOGv4ba-54">
          <mxGeometry width="190" height="60" as="geometry" />
        </mxCell>
        <mxCell id="MVg5KTkQZKPQUCUnIw-0-43" value="" style="group" vertex="1" connectable="0" parent="MVg5KTkQZKPQUCUnIw-0-34">
          <mxGeometry width="190" height="60" as="geometry" />
        </mxCell>
        <mxCell id="jSwNP9GdJg-Y1JOGv4ba-11" value="&amp;nbsp; &amp;nbsp; &amp;nbsp; &amp;nbsp; &amp;nbsp; &amp;nbsp; Realtime Database" style="shape=rectangle;whiteSpace=wrap;html=1;fontSize=15;" parent="MVg5KTkQZKPQUCUnIw-0-43" vertex="1">
          <mxGeometry width="190" height="60" as="geometry" />
        </mxCell>
        <mxCell id="jSwNP9GdJg-Y1JOGv4ba-48" value="" style="shape=image;verticalLabelPosition=bottom;labelBackgroundColor=default;verticalAlign=top;aspect=fixed;imageAspect=0;image=https://4.bp.blogspot.com/-I6KBH1NIJGk/XIccojn6YII/AAAAAAAADZ8/BeJ6uuutN5YoQe6Zboig_q5djnXS3hVpgCLcBGAs/s1600/Firebase%2BRealtime%2BDatabase%2B%281-%2BIcon%2C%2BLight%29.png;" parent="MVg5KTkQZKPQUCUnIw-0-43" vertex="1">
          <mxGeometry y="5" width="50" height="50" as="geometry" />
        </mxCell>
        <mxCell id="jSwNP9GdJg-Y1JOGv4ba-55" value="" style="group" parent="1" vertex="1" connectable="0">
          <mxGeometry x="390" y="135" width="160" height="60" as="geometry" />
        </mxCell>
        <mxCell id="jSwNP9GdJg-Y1JOGv4ba-10" value="&amp;nbsp; &amp;nbsp; &amp;nbsp; &amp;nbsp; Firestore" style="shape=rectangle;whiteSpace=wrap;html=1;fontSize=15;" parent="jSwNP9GdJg-Y1JOGv4ba-55" vertex="1">
          <mxGeometry width="160" height="60" as="geometry" />
        </mxCell>
        <mxCell id="jSwNP9GdJg-Y1JOGv4ba-44" value="" style="editableCssRules=.*;html=1;shape=image;verticalLabelPosition=bottom;labelBackgroundColor=#ffffff;verticalAlign=top;aspect=fixed;imageAspect=0;image=data:image/svg+xml,PHN2ZyB4bWxucz0iaHR0cDovL3d3dy53My5vcmcvMjAwMC9zdmciIHhtbG5zOnY9Imh0dHBzOi8vdmVjdGEuaW8vbmFubyIgd2lkdGg9IjMyMy45MDU2MTAzOTg2NzUxNSIgaGVpZ2h0PSIzNzYuNDIyMjk0OTYzNjg0MDciIHZpZXdCb3g9Ii0wLjA5NzAwMDAwMjg2MTAyMjk1IDAuMjg3OTk5OTg3NjAyMjMzOSA4NS42OTk5OTY5NDgyNDIxOSA5OS41OTUwMDEyMjA3MDMxMiI+JiN4YTs8c3R5bGUgdHlwZT0idGV4dC9jc3MiPiYjeGE7CS5zdDB7ZmlsbDojYWVjYmZhO30mI3hhOwkuc3Qxe2ZpbGw6IzY2OWRmNjt9JiN4YTsJLnN0MntmaWxsOiM0Mjg1ZjQ7fSYjeGE7PC9zdHlsZT4mI3hhOwk8cGF0aCBjbGFzcz0ic3QwIiBkPSJNLS4wOTcgNzUuODE1VjU1Ljg3NGw0Mi44NS0yMC4xODN2MTkuMDd6bTAtMzUuNDAzVjIwLjQ3MUw0Mi43NTMuMjg4djE5LjA3eiIvPiYjeGE7CTxwYXRoIGNsYXNzPSJzdDEiIGQ9Ik04NS42MDMgNzUuODE1VjU1Ljg3NGwtNDIuODUtMjAuMTgzdjE5LjA3em0wLTM1LjQwM1YyMC40NzFMNDIuNzUzLjI4OHYxOS4wN3oiLz4mI3hhOwk8cGF0aCBjbGFzcz0ic3QyIiBkPSJNNDIuNzUzIDgwLjMxNGwxNi4yMTctNy41MjUgMjEuMDg0IDkuNzE3LTM3LjMwMSAxNy4zNzd6Ii8+JiN4YTs8L3N2Zz4=;" parent="jSwNP9GdJg-Y1JOGv4ba-55" vertex="1">
          <mxGeometry x="10" y="10" width="34" height="40" as="geometry" />
        </mxCell>
        <mxCell id="MVg5KTkQZKPQUCUnIw-0-31" value="" style="edgeStyle=orthogonalEdgeStyle;rounded=0;orthogonalLoop=1;jettySize=auto;html=1;" edge="1" parent="1" source="MVg5KTkQZKPQUCUnIw-0-6" target="jSwNP9GdJg-Y1JOGv4ba-2">
          <mxGeometry relative="1" as="geometry" />
        </mxCell>
        <mxCell id="MVg5KTkQZKPQUCUnIw-0-13" value="&lt;b&gt;GCP SERVICES&lt;/b&gt;" style="rounded=0;whiteSpace=wrap;html=1;" vertex="1" parent="1">
          <mxGeometry x="330" y="-70" width="120" height="30" as="geometry" />
        </mxCell>
        <mxCell id="MVg5KTkQZKPQUCUnIw-0-24" value="" style="group" vertex="1" connectable="0" parent="1">
          <mxGeometry x="910" y="270" width="150" height="60" as="geometry" />
        </mxCell>
        <mxCell id="jSwNP9GdJg-Y1JOGv4ba-30" value="&amp;nbsp; &amp;nbsp; &amp;nbsp; &amp;nbsp; &amp;nbsp; &amp;nbsp; GeminiAI" style="shape=rectangle;whiteSpace=wrap;html=1;fontSize=15;movable=1;resizable=1;rotatable=1;deletable=1;editable=1;locked=0;connectable=1;" parent="MVg5KTkQZKPQUCUnIw-0-24" vertex="1">
          <mxGeometry width="150" height="60" as="geometry" />
        </mxCell>
        <mxCell id="jSwNP9GdJg-Y1JOGv4ba-33" value="" style="editableCssRules=.*;html=1;shape=image;verticalLabelPosition=bottom;labelBackgroundColor=#ffffff;verticalAlign=top;aspect=fixed;imageAspect=0;image=data:image/svg+xml,PHN2ZyB4bWxucz0iaHR0cDovL3d3dy53My5vcmcvMjAwMC9zdmciIHhtbG5zOnY9Imh0dHBzOi8vdmVjdGEuaW8vbmFubyIgd2lkdGg9IjIwIiBoZWlnaHQ9IjE3LjUiIGZpbGwtcnVsZT0iZXZlbm9kZCIgdmlld0JveD0iMCAwIDIwIDE3LjUiPiYjeGE7CTxzdHlsZSB0eXBlPSJ0ZXh0L2NzcyI+JiN4YTsJLnN0MHtmaWxsOiM0Mjg1ZjQ7fSYjeGE7CS5zdDF7ZmlsbDojNjY5ZGY2O30mI3hhOwk8L3N0eWxlPiYjeGE7CTxwYXRoIGNsYXNzPSJzdDAiIGQ9Ik0xOC45MSAxMC42M0wyMCA4Ljc1IDE3LjgyIDVoLTMuMDdsLTEuMDYtMS44NkgxMi41VjEuODhoMS45NGwxLjA2IDEuODdoMS41OUwxNC45IDBoLTQuMjd2NWgxLjczbC43MyAxLjI1aC0yLjQ2djIuNWgyLjI2bDEuMDUtMS44N2gyLjgxbC43MiAxLjI1aC0yLjhMMTMuNjIgMTBoLTIuOTl2NC4zOGgzLjRsLS43MiAxLjI1aC0yLjY4djEuODdoNC4yN2wzLjI4LTUuNjJoLTIuMDlsLS43MyAxLjI1SDEyLjV2LTEuMjVoMi4xNGwuNzQtMS4yNXoiLz4mI3hhOwk8cGF0aCBjbGFzcz0ic3QxIiBkPSJNMS4wOSAxMC42M0wwIDguNzUgMi4xOCA1aDMuMDdsMS4wNi0xLjg2SDcuNVYxLjg4SDUuNTZMNC41IDMuNzVIMi45MUw1LjEgMGg0LjI4djVINy42NGwtLjczIDEuMjVoMi40N3YyLjVINy4xMUw2LjA2IDYuODhIMy4yNWwtLjcyIDEuMjVoMi44TDYuMzggMTBoM3Y0LjM4SDUuOTdsLjcyIDEuMjVoMi42OXYxLjg3SDUuMWwtMy4yOC01LjYyaDIuMDlsLjczIDEuMjVINy41di0xLjI1SDUuMzZsLS43NC0xLjI1eiIvPiYjeGE7PC9zdmc+;movable=0;resizable=0;rotatable=0;deletable=0;editable=0;locked=1;connectable=0;" parent="MVg5KTkQZKPQUCUnIw-0-24" vertex="1">
          <mxGeometry x="10" y="12" width="40" height="36" as="geometry" />
        </mxCell>
        <mxCell id="MVg5KTkQZKPQUCUnIw-0-14" value="" style="rounded=1;whiteSpace=wrap;html=1;perimeter=rectanglePerimeter;arcSize=4;imageHeight=24;" vertex="1" parent="1">
          <mxGeometry x="890" y="-50" width="190" height="190" as="geometry" />
        </mxCell>
        <mxCell id="jSwNP9GdJg-Y1JOGv4ba-14" value="&amp;nbsp; &amp;nbsp; &amp;nbsp; &amp;nbsp; &amp;nbsp; &amp;nbsp; Neo4j" style="shape=rectangle;whiteSpace=wrap;html=1;fontSize=15;" parent="1" vertex="1">
          <mxGeometry x="920" y="-7.5" width="120" height="60" as="geometry" />
        </mxCell>
        <mxCell id="jSwNP9GdJg-Y1JOGv4ba-51" value="" style="shape=image;verticalLabelPosition=bottom;labelBackgroundColor=default;verticalAlign=top;aspect=fixed;imageAspect=0;image=https://static-00.iconduck.com/assets.00/neo4j-icon-1808x2048-22lbowan.png;" parent="1" vertex="1">
          <mxGeometry x="930" width="39.7" height="45" as="geometry" />
        </mxCell>
        <mxCell id="MVg5KTkQZKPQUCUnIw-0-2" value="" style="group" vertex="1" connectable="0" parent="1">
          <mxGeometry x="920" y="62.5" width="120" height="50" as="geometry" />
        </mxCell>
        <mxCell id="jSwNP9GdJg-Y1JOGv4ba-4" value="&amp;nbsp; &amp;nbsp; &amp;nbsp; &amp;nbsp; &amp;nbsp; &amp;nbsp; &amp;nbsp; &amp;nbsp; Algolia" style="shape=rectangle;whiteSpace=wrap;html=1;fontSize=15;" parent="MVg5KTkQZKPQUCUnIw-0-2" vertex="1">
          <mxGeometry width="120" height="50" as="geometry" />
        </mxCell>
        <mxCell id="jSwNP9GdJg-Y1JOGv4ba-56" value="" style="shape=image;verticalLabelPosition=bottom;labelBackgroundColor=default;verticalAlign=top;aspect=fixed;imageAspect=0;image=https://uxwing.com/wp-content/themes/uxwing/download/brands-and-social-media/algolia-icon.png;" parent="MVg5KTkQZKPQUCUnIw-0-2" vertex="1">
          <mxGeometry x="10" y="7.5" width="35" height="35" as="geometry" />
        </mxCell>
        <mxCell id="MVg5KTkQZKPQUCUnIw-0-33" value="" style="group" vertex="1" connectable="0" parent="1">
          <mxGeometry x="10" y="135" width="120" height="60" as="geometry" />
        </mxCell>
        <mxCell id="MVg5KTkQZKPQUCUnIw-0-6" value="&lt;font style=&quot;font-size: 16px;&quot;&gt;&amp;nbsp; &amp;nbsp; &amp;nbsp; &amp;nbsp; &amp;nbsp; &amp;nbsp;Client&lt;/font&gt;" style="rounded=0;whiteSpace=wrap;html=1;" vertex="1" parent="MVg5KTkQZKPQUCUnIw-0-33">
          <mxGeometry width="120" height="60" as="geometry" />
        </mxCell>
        <mxCell id="MVg5KTkQZKPQUCUnIw-0-9" value="" style="sketch=0;outlineConnect=0;fontColor=#232F3E;gradientColor=none;strokeColor=#232F3E;fillColor=#ffffff;dashed=0;verticalLabelPosition=bottom;verticalAlign=top;align=center;html=1;fontSize=12;fontStyle=0;aspect=fixed;shape=mxgraph.aws4.resourceIcon;resIcon=mxgraph.aws4.client;" vertex="1" parent="MVg5KTkQZKPQUCUnIw-0-33">
          <mxGeometry x="10" y="5" width="50" height="50" as="geometry" />
        </mxCell>
        <mxCell id="MVg5KTkQZKPQUCUnIw-0-35" value="" style="edgeStyle=orthogonalEdgeStyle;rounded=0;orthogonalLoop=1;jettySize=auto;html=1;entryX=0.5;entryY=0;entryDx=0;entryDy=0;" edge="1" parent="1" source="jSwNP9GdJg-Y1JOGv4ba-9" target="jSwNP9GdJg-Y1JOGv4ba-3">
          <mxGeometry relative="1" as="geometry" />
        </mxCell>
        <mxCell id="MVg5KTkQZKPQUCUnIw-0-37" value="" style="edgeStyle=orthogonalEdgeStyle;rounded=0;orthogonalLoop=1;jettySize=auto;html=1;entryX=1;entryY=0.5;entryDx=0;entryDy=0;exitX=0;exitY=0.75;exitDx=0;exitDy=0;" edge="1" parent="1" source="jSwNP9GdJg-Y1JOGv4ba-9" target="jSwNP9GdJg-Y1JOGv4ba-10">
          <mxGeometry relative="1" as="geometry">
            <Array as="points">
              <mxPoint x="580" y="105" />
              <mxPoint x="580" y="165" />
            </Array>
          </mxGeometry>
        </mxCell>
        <mxCell id="MVg5KTkQZKPQUCUnIw-0-38" value="" style="edgeStyle=orthogonalEdgeStyle;rounded=0;orthogonalLoop=1;jettySize=auto;html=1;entryX=1;entryY=0.5;entryDx=0;entryDy=0;exitX=0.25;exitY=1;exitDx=0;exitDy=0;" edge="1" parent="1" source="jSwNP9GdJg-Y1JOGv4ba-9" target="jSwNP9GdJg-Y1JOGv4ba-12">
          <mxGeometry relative="1" as="geometry" />
        </mxCell>
        <mxCell id="MVg5KTkQZKPQUCUnIw-0-42" value="" style="edgeStyle=orthogonalEdgeStyle;rounded=0;orthogonalLoop=1;jettySize=auto;html=1;entryX=0.75;entryY=0;entryDx=0;entryDy=0;startArrow=classic;startFill=1;" edge="1" parent="1" source="jSwNP9GdJg-Y1JOGv4ba-9" target="jSwNP9GdJg-Y1JOGv4ba-2">
          <mxGeometry relative="1" as="geometry" />
        </mxCell>
        <mxCell id="MVg5KTkQZKPQUCUnIw-0-44" value="" style="edgeStyle=orthogonalEdgeStyle;rounded=0;orthogonalLoop=1;jettySize=auto;html=1;entryX=0;entryY=0.5;entryDx=0;entryDy=0;exitX=0.5;exitY=0;exitDx=0;exitDy=0;startArrow=block;startFill=1;" edge="1" parent="1" source="jSwNP9GdJg-Y1JOGv4ba-9" target="jSwNP9GdJg-Y1JOGv4ba-14">
          <mxGeometry relative="1" as="geometry" />
        </mxCell>
        <mxCell id="MVg5KTkQZKPQUCUnIw-0-45" value="" style="edgeStyle=orthogonalEdgeStyle;rounded=0;orthogonalLoop=1;jettySize=auto;html=1;entryX=0;entryY=0.5;entryDx=0;entryDy=0;startArrow=classic;startFill=1;" edge="1" parent="1" source="jSwNP9GdJg-Y1JOGv4ba-9" target="jSwNP9GdJg-Y1JOGv4ba-4">
          <mxGeometry relative="1" as="geometry" />
        </mxCell>
        <mxCell id="MVg5KTkQZKPQUCUnIw-0-46" value="" style="endArrow=classic;html=1;rounded=0;exitX=1;exitY=0.75;exitDx=0;exitDy=0;entryX=0;entryY=0.25;entryDx=0;entryDy=0;" edge="1" parent="1" source="jSwNP9GdJg-Y1JOGv4ba-9" target="jSwNP9GdJg-Y1JOGv4ba-31">
          <mxGeometry width="50" height="50" relative="1" as="geometry">
            <mxPoint x="480" y="160" as="sourcePoint" />
            <mxPoint x="530" y="110" as="targetPoint" />
            <Array as="points">
              <mxPoint x="850" y="103" />
              <mxPoint x="850" y="215" />
            </Array>
          </mxGeometry>
        </mxCell>
        <mxCell id="MVg5KTkQZKPQUCUnIw-0-47" value="" style="endArrow=classic;html=1;rounded=0;exitX=0.75;exitY=1;exitDx=0;exitDy=0;entryX=0;entryY=0.5;entryDx=0;entryDy=0;" edge="1" parent="1" source="jSwNP9GdJg-Y1JOGv4ba-9" target="jSwNP9GdJg-Y1JOGv4ba-30">
          <mxGeometry width="50" height="50" relative="1" as="geometry">
            <mxPoint x="480" y="160" as="sourcePoint" />
            <mxPoint x="530" y="110" as="targetPoint" />
            <Array as="points">
              <mxPoint x="745" y="300" />
            </Array>
          </mxGeometry>
        </mxCell>
        <mxCell id="MVg5KTkQZKPQUCUnIw-0-48" value="" style="endArrow=classic;html=1;rounded=0;exitX=0;exitY=0.25;exitDx=0;exitDy=0;entryX=0.25;entryY=1;entryDx=0;entryDy=0;" edge="1" parent="1" source="jSwNP9GdJg-Y1JOGv4ba-49" target="jSwNP9GdJg-Y1JOGv4ba-2">
          <mxGeometry width="50" height="50" relative="1" as="geometry">
            <mxPoint x="480" y="160" as="sourcePoint" />
            <mxPoint x="530" y="110" as="targetPoint" />
            <Array as="points">
              <mxPoint x="193" y="395" />
            </Array>
          </mxGeometry>
        </mxCell>
        <mxCell id="MVg5KTkQZKPQUCUnIw-0-49" value="" style="endArrow=classic;html=1;rounded=0;exitX=0;exitY=0.75;exitDx=0;exitDy=0;entryX=0.5;entryY=1;entryDx=0;entryDy=0;" edge="1" parent="1" source="jSwNP9GdJg-Y1JOGv4ba-49" target="MVg5KTkQZKPQUCUnIw-0-6">
          <mxGeometry width="50" height="50" relative="1" as="geometry">
            <mxPoint x="480" y="160" as="sourcePoint" />
            <mxPoint x="530" y="110" as="targetPoint" />
            <Array as="points">
              <mxPoint x="70" y="425" />
            </Array>
          </mxGeometry>
        </mxCell>
        <mxCell id="MVg5KTkQZKPQUCUnIw-0-50" value="&lt;b&gt;THIRD-PARTY SERVICES&lt;/b&gt;" style="rounded=0;whiteSpace=wrap;html=1;" vertex="1" parent="1">
          <mxGeometry x="890" y="-50" width="150" height="30" as="geometry" />
        </mxCell>
        <mxCell id="MVg5KTkQZKPQUCUnIw-0-51" value="&lt;b&gt;GCP API&lt;/b&gt;" style="rounded=0;whiteSpace=wrap;html=1;" vertex="1" parent="1">
          <mxGeometry x="889.85" y="160" width="120" height="30" as="geometry" />
        </mxCell>
      </root>
    </mxGraphModel>
  </diagram>
</mxfile>
